<?xml version="1.0" encoding="UTF-8"?>
<svg version="1.1" xmlns="http://www.w3.org/2000/svg" width="512" height="512">
<path d="M0 0 C1.51427582 0.00081573 1.51427582 0.00081573 3.05914307 0.00164795 C19.56873539 0.04241399 35.48532001 0.94970691 51.6875 4.375 C52.72938477 4.59462402 53.77126953 4.81424805 54.84472656 5.04052734 C101.93325182 15.31161197 143.8605975 38.20506027 178.6875 71.375 C179.585896 72.23037354 179.585896 72.23037354 180.50244141 73.10302734 C188.84560078 81.10600112 196.49095187 89.32479841 203.37695312 98.61572266 C204.70547091 100.39912413 206.06110037 102.15909516 207.421875 103.91796875 C214.78116971 113.54366112 220.89519954 123.74359138 226.6875 134.375 C227.0494043 135.0354834 227.41130859 135.6959668 227.78417969 136.37646484 C245.51216381 169.12658288 256.68366409 207.34379778 256.890625 244.73046875 C256.89763931 245.5865271 256.90465363 246.44258545 256.91188049 247.32458496 C256.92927398 250.07061092 256.93573257 252.81642098 256.9375 255.5625 C256.93851212 256.97252792 256.93851212 256.97252792 256.93954468 258.41104126 C256.92334307 272.61924372 256.37279265 286.38887655 253.6875 300.375 C253.45401855 301.70096191 253.45401855 301.70096191 253.21582031 303.05371094 C246.07402179 343.21029068 228.94881456 381.38051842 203.6875 413.375 C202.74197266 414.60863281 202.74197266 414.60863281 201.77734375 415.8671875 C196.16239054 423.08476595 189.99171024 429.76124413 183.6875 436.375 C183.21376953 436.87209473 182.74003906 437.36918945 182.25195312 437.88134766 C175.80077567 444.60170116 169.01854844 450.63635142 161.6875 456.375 C160.70265625 457.16519531 159.7178125 457.95539063 158.703125 458.76953125 C125.64520322 485.05849963 86.10432831 501.8427387 44.6875 509.375 C43.800625 509.54016113 42.91375 509.70532227 42 509.87548828 C14.65962507 514.73544096 -16.05126373 514.64423764 -43.3125 509.375 C-44.24046387 509.20339355 -45.16842773 509.03178711 -46.12451172 508.85498047 C-85.19280823 501.50133475 -124.1913685 485.46384169 -155.3125 460.375 C-156.24191406 459.63636719 -157.17132813 458.89773438 -158.12890625 458.13671875 C-174.28255476 445.128426 -189.65809866 430.85864391 -202.00927734 414.13574219 C-203.36100483 412.30946668 -204.73562589 410.50208921 -206.11328125 408.6953125 C-212.48339917 400.26737621 -218.10267029 391.56062378 -223.3125 382.375 C-223.96734375 381.24191406 -224.6221875 380.10882813 -225.296875 378.94140625 C-237.73388688 356.9111925 -245.86651103 332.66702206 -251.125 308 C-251.32005127 307.08669922 -251.51510254 306.17339844 -251.71606445 305.23242188 C-254.96041134 289.07795002 -255.68757695 273.18531683 -255.625 256.75 C-255.62284485 255.73176147 -255.6206897 254.71352295 -255.61846924 253.66442871 C-255.56877396 239.04252576 -255.26311242 224.74366068 -252.3125 210.375 C-252.11382324 209.36244141 -251.91514648 208.34988281 -251.71044922 207.30664062 C-244.34049943 170.45137112 -229.54567801 135.73026148 -207.3125 105.375 C-206.89645508 104.80201172 -206.48041016 104.22902344 -206.05175781 103.63867188 C-200.49943955 96.03890873 -194.44637523 89.07384403 -187.9765625 82.25 C-185.33187136 79.46818013 -185.33187136 79.46818013 -183.18359375 76.69921875 C-181.48386714 74.58786733 -179.81800296 72.92497981 -177.75 71.1875 C-174.51827402 68.43608559 -171.40752084 65.5917 -168.3125 62.6875 C-135.56825261 32.95680285 -94.12085921 13.80599889 -51.125 4.625 C-50.20017822 4.42616211 -49.27535645 4.22732422 -48.32250977 4.02246094 C-32.2380391 0.75541228 -16.3721011 -0.03330603 0 0 Z " fill="#FF700D" transform="translate(255.3125,-0.375)"/>
<path d="M0 0 C5.21427107 0.11695561 9.34867436 3.49943405 13.5625 6.25 C14.39676514 6.7857666 15.23103027 7.3215332 16.09057617 7.87353516 C18.73273671 9.57374238 21.36714517 11.28542404 24 13 C25.6405895 14.06515885 27.28121376 15.13026416 28.921875 16.1953125 C31.3841624 17.79526944 33.84554788 19.3965593 36.30493164 21.00097656 C42.50863882 25.04528301 48.74663793 29.03297878 55 33 C66.39745426 40.23155809 77.76853084 47.51235389 89 55 C91.76070239 55.31962794 91.76070239 55.31962794 94.875 55.30859375 C96.59976563 55.34629883 96.59976563 55.34629883 98.359375 55.38476562 C100.78640491 55.4199211 103.21349452 55.45117134 105.640625 55.47851562 C107.36539063 55.5181543 107.36539063 55.5181543 109.125 55.55859375 C110.17945313 55.57204834 111.23390625 55.58550293 112.3203125 55.59936523 C115.42495221 56.06353376 116.10694036 56.57315518 118 59 C118.36914349 60.94649792 118.36914349 60.94649792 118.36076355 63.19511414 C118.36694954 64.47604446 118.36694954 64.47604446 118.3732605 65.78285217 C118.36247467 66.71649094 118.35168884 67.6501297 118.34057617 68.61206055 C118.34101425 69.59760925 118.34145233 70.58315796 118.34190369 71.59857178 C118.33981093 74.86148782 118.31645653 78.12389229 118.29296875 81.38671875 C118.28737454 83.64687316 118.28310362 85.90703121 118.28010559 88.16719055 C118.2686431 94.12014789 118.23916366 100.07288615 118.20599365 106.02575684 C118.17532312 112.09852128 118.1616067 118.17132108 118.14648438 124.24414062 C118.11429545 136.16285675 118.06308201 148.08141017 118 160 C118.92337158 159.98428955 119.84674316 159.9685791 120.7980957 159.95239258 C124.22539889 159.90125168 127.65229642 159.86364465 131.07983398 159.83520508 C132.56297199 159.82012232 134.04606544 159.79965311 135.52905273 159.77368164 C137.66140745 159.73727384 139.79317235 159.72026927 141.92578125 159.70703125 C143.85031128 159.68346558 143.85031128 159.68346558 145.8137207 159.65942383 C149 160 149 160 150.67575359 161.27753353 C153.02260797 164.33012099 152.40513343 168.20228093 152.37231445 171.90258789 C152.37596512 172.81355225 152.37961578 173.7245166 152.38337708 174.66308594 C152.39150021 177.68313085 152.37785038 180.70264184 152.36328125 183.72265625 C152.36276254 185.82433573 152.36328066 187.9260157 152.36479187 190.0276947 C152.36470205 194.44033013 152.35425787 198.85278326 152.33618164 203.26538086 C152.31359176 208.90191157 152.31293171 214.53817356 152.31969929 220.17473698 C152.32305488 224.52009944 152.3163777 228.86540151 152.30657005 233.21075249 C152.30273779 235.28742595 152.3015616 237.36410616 152.3031559 239.44078255 C152.30353003 242.35786638 152.29080667 245.274617 152.2746582 248.19165039 C152.27837433 249.46313179 152.27837433 249.46313179 152.28216553 250.76029968 C152.1494064 265.91522089 146.84165921 278.9695341 136.24609375 289.88671875 C125.36965926 300.12002494 112.67109544 305.35765289 97.73828125 305.22705078 C96.40516655 305.22748886 96.40516655 305.22748886 95.04512024 305.22793579 C92.13414433 305.22655258 89.22343069 305.21103925 86.3125 305.1953125 C84.28369283 305.19157878 82.25488384 305.1887335 80.22607422 305.18673706 C74.90617833 305.17912889 69.58639298 305.15950473 64.26654053 305.1373291 C58.83005264 305.11680984 53.39354676 305.10772237 47.95703125 305.09765625 C37.30463914 305.07625607 26.65232879 305.04215432 16 305 C16.01047363 305.62567871 16.02094727 306.25135742 16.03173828 306.89599609 C16.07323191 309.7222901 16.09930473 312.54852011 16.125 315.375 C16.14175781 316.35984375 16.15851563 317.3446875 16.17578125 318.359375 C16.18222656 319.30039062 16.18867188 320.24140625 16.1953125 321.2109375 C16.20578613 322.08024902 16.21625977 322.94956055 16.22705078 323.84521484 C16 326 16 326 14 328 C9.29538799 327.76434859 5.77480182 325.24306998 1.9375 322.75 C0.90290649 322.09052368 0.90290649 322.09052368 -0.15258789 321.41772461 C-2.44117043 319.95442419 -4.72122358 318.47851988 -7 317 C-7.80018555 316.48260254 -8.60037109 315.96520508 -9.42480469 315.43212891 C-14.47924615 312.16260568 -19.52333834 308.87742392 -24.56445312 305.58740234 C-28.26649739 303.1745423 -31.97648672 300.77403453 -35.6875 298.375 C-36.37489258 297.93051514 -37.06228516 297.48603027 -37.77050781 297.02807617 C-39.15035742 296.13585359 -40.53024012 295.24368219 -41.91015625 294.3515625 C-44.78097507 292.4949208 -47.65110731 290.63723567 -50.51855469 288.77539062 C-51.9597902 287.84484955 -53.40576074 286.92159993 -54.85644531 286.00585938 C-58.13784771 283.92467621 -61.27831867 281.83255651 -64.265625 279.34375 C-74.63848733 271.06466914 -85.70459721 271.88550409 -98.49487305 272.28955078 C-101 272 -101 272 -102.63402271 270.74409771 C-104.32329332 268.58721484 -104.37088434 267.52063216 -104.36076355 264.80488586 C-104.36488754 263.95093231 -104.36901154 263.09697876 -104.3732605 262.21714783 C-104.36247467 261.28350906 -104.35168884 260.3498703 -104.34057617 259.38793945 C-104.34123329 257.90961639 -104.34123329 257.90961639 -104.34190369 256.40142822 C-104.33981093 253.13851218 -104.31645653 249.87610771 -104.29296875 246.61328125 C-104.28737454 244.35312684 -104.28310362 242.09296879 -104.28010559 239.83280945 C-104.2686431 233.87985211 -104.23916366 227.92711385 -104.20599365 221.97424316 C-104.17532312 215.90147872 -104.1616067 209.82867892 -104.14648438 203.75585938 C-104.11429545 191.83714325 -104.06308201 179.91858983 -104 168 C-105.38505737 168.02356567 -105.38505737 168.02356567 -106.7980957 168.04760742 C-110.22539889 168.09874832 -113.65229642 168.13635535 -117.07983398 168.16479492 C-118.56297199 168.17987768 -120.04606544 168.20034689 -121.52905273 168.22631836 C-123.66140745 168.26272616 -125.79317235 168.27973073 -127.92578125 168.29296875 C-129.20880127 168.3086792 -130.49182129 168.32438965 -131.8137207 168.34057617 C-135 168 -135 168 -136.67491245 166.72832298 C-138.27828 164.63703703 -138.37865455 163.61758277 -138.38768005 161.0062561 C-138.39758469 160.19633209 -138.40748932 159.38640808 -138.41769409 158.55194092 C-138.41319244 157.66677795 -138.4086908 156.78161499 -138.40405273 155.86962891 C-138.41091599 154.93422272 -138.41777924 153.99881653 -138.42485046 153.0350647 C-138.44319819 149.93207744 -138.43926593 146.82959258 -138.43359375 143.7265625 C-138.43815528 141.56480749 -138.44346077 139.40305394 -138.44947815 137.24130249 C-138.45842754 132.70003389 -138.45596948 128.15894092 -138.44604492 123.61767578 C-138.43461688 117.82658894 -138.45466251 112.03611745 -138.48396206 106.24511147 C-138.50241509 101.77351075 -138.50201243 97.30205455 -138.49632454 92.83042526 C-138.49617209 90.6976066 -138.5021525 88.56477765 -138.51461601 86.43199539 C-138.58342039 72.71358503 -138.60102397 59.78330759 -130.5 48 C-129.9328125 47.154375 -129.365625 46.30875 -128.78125 45.4375 C-119.99964122 33.42056167 -108.5752123 26.18447892 -94 23 C-91.0253827 22.90998019 -88.07487799 22.87383297 -85.10058594 22.88647461 C-84.20267334 22.88632858 -83.30476074 22.88618256 -82.37963867 22.8860321 C-79.41452613 22.88672824 -76.44947656 22.89450671 -73.484375 22.90234375 C-71.42742955 22.90420899 -69.37048365 22.90563239 -67.3135376 22.90663147 C-61.90155815 22.9104483 -56.48960556 22.92027149 -51.07763672 22.93133545 C-45.55436568 22.94156748 -40.03109029 22.94613293 -34.5078125 22.95117188 C-23.6718632 22.96189448 -12.83593384 22.97896093 -2 23 C-2.01047363 22.37432129 -2.02094727 21.74864258 -2.03173828 21.10400391 C-2.07323191 18.2777099 -2.09930473 15.45147989 -2.125 12.625 C-2.14175781 11.64015625 -2.15851563 10.6553125 -2.17578125 9.640625 C-2.18222656 8.69960937 -2.18867188 7.75859375 -2.1953125 6.7890625 C-2.20578613 5.91975098 -2.21625977 5.05043945 -2.22705078 4.15478516 C-2 2 -2 2 0 0 Z " fill="#FFFDFC" transform="translate(249,92)"/>
<path d="M0 0 C0 31.35 0 62.7 0 95 C-15.84 95.495 -15.84 95.495 -32 96 C-34.73306029 98.73306029 -34.27381961 100.2746666 -34.31884766 104.10205078 C-34.34865219 106.02381638 -34.34865219 106.02381638 -34.37905884 107.98440552 C-34.39093617 109.38803942 -34.40259898 110.79167516 -34.4140625 112.1953125 C-34.43276692 113.62736131 -34.45233978 115.05939902 -34.4727478 116.49142456 C-34.52415206 120.26264917 -34.56373311 124.03390955 -34.60089111 127.80529785 C-34.64790819 132.3291742 -34.70954136 136.85287195 -34.76873779 141.37660217 C-34.85705118 148.25099636 -34.92674242 155.12535457 -35 162 C-54.14 162 -73.28 162 -93 162 C-93.495 151.605 -93.495 151.605 -94 141 C-98.54621035 139.60693137 -98.54621035 139.60693137 -100.86743164 140.77832031 C-101.45903076 141.20725586 -102.05062988 141.63619141 -102.66015625 142.078125 C-103.35616943 142.56941895 -104.05218262 143.06071289 -104.76928711 143.56689453 C-105.52604736 144.12231934 -106.28280762 144.67774414 -107.0625 145.25 C-108.77247705 146.46229339 -110.48347798 147.6731434 -112.1953125 148.8828125 C-113.58991699 149.87716309 -113.58991699 149.87716309 -115.01269531 150.89160156 C-119.85216602 154.30723323 -124.76317995 157.61645284 -129.67166138 160.93164062 C-132.04948799 162.53858343 -134.42430757 164.14994098 -136.79914856 165.7612915 C-141.78177387 169.14202191 -146.76655794 172.51956786 -151.75154114 175.89682007 C-154.2710895 177.60396229 -156.79024899 179.31167782 -159.30935669 181.01947021 C-161.06839604 182.21163736 -162.82801049 183.40295204 -164.58764648 184.59423828 C-165.67505127 185.3314209 -166.76245605 186.06860352 -167.8828125 186.828125 C-168.93758789 187.52744141 -169.99236328 188.22675781 -171.07910156 188.94726562 C-173.98549607 190.90048707 -173.98549607 190.90048707 -176.31933594 193.09960938 C-185.35608238 200.97172489 -189.92506867 198 -204 198 C-204 166.32 -204 134.64 -204 102 C-193.11 101.67 -182.22 101.34 -171 101 C-169.19668389 99.19668389 -169.82800706 96.44451543 -169.79467773 94.01147461 C-169.77473251 92.73022202 -169.75478729 91.44896942 -169.73423767 90.12889099 C-169.71725203 88.72004316 -169.70037327 87.31119405 -169.68359375 85.90234375 C-169.66303085 84.46887095 -169.64203456 83.03540431 -169.62062073 81.60194397 C-169.56533141 77.8224688 -169.51595255 74.0429383 -169.46777344 70.2633667 C-169.40879393 65.73205235 -169.34252839 61.20083949 -169.27747345 56.66960907 C-169.17937764 49.77980118 -169.09058089 42.88992927 -169 36 C-149.86 36 -130.72 36 -111 36 C-110.505 46.395 -110.505 46.395 -110 57 C-103.68869253 57.00421995 -103.68869253 57.00421995 -98.83203125 53.95703125 C-97.8673291 53.30275146 -96.90262695 52.64847168 -95.90869141 51.97436523 C-94.37607666 50.90424194 -94.37607666 50.90424194 -92.8125 49.8125 C-91.73661621 49.07781494 -90.66073242 48.34312988 -89.55224609 47.58618164 C-86.35963465 45.40289779 -83.17922654 43.20270928 -80 41 C-78.46594797 39.94890742 -76.93091783 38.8992397 -75.39453125 37.8515625 C-73.24606491 36.38617567 -71.09866658 34.91940411 -68.95532227 33.4465332 C-63.48960474 29.69067155 -58.00260068 25.96703847 -52.5078125 22.25390625 C-51.75078033 21.74230453 -50.99374817 21.23070282 -50.21377563 20.70359802 C-46.38973756 18.11989679 -42.5647013 15.53768319 -38.73876953 12.95678711 C-37.31020794 11.9920446 -35.88165922 11.02728303 -34.453125 10.0625 C-33.80586456 9.62647964 -33.15860413 9.19045929 -32.49172974 8.7412262 C-31.872164 8.32259811 -31.25259827 7.90397003 -30.61425781 7.47265625 C-30.08310364 7.11437744 -29.55194946 6.75609863 -29.00469971 6.38696289 C-19.77305932 0 -19.77305932 0 0 0 Z " fill="#FF700E" transform="translate(358,157)"/>
<path d="M0 0 C1.07585609 -0.00525696 1.07585609 -0.00525696 2.17344666 -0.01062012 C4.55070601 -0.01944171 6.92766911 -0.01358628 9.30493164 -0.00683594 C10.95398516 -0.00818262 12.6030383 -0.01012317 14.25209045 -0.01263428 C17.71139295 -0.01558624 21.17059229 -0.01128618 24.62988281 -0.00195312 C29.06654304 0.00943257 33.50296108 0.00288806 37.93961239 -0.00909805 C41.34621508 -0.01632235 44.75276029 -0.01402595 48.1593647 -0.00884247 C49.79525341 -0.00750709 51.43114731 -0.00914981 53.06702995 -0.01380157 C55.35342111 -0.0188752 57.63941938 -0.01114463 59.92578125 0 C61.22768906 0.00159119 62.52959686 0.00318237 63.87095642 0.00482178 C67.02758789 0.25878906 67.02758789 0.25878906 70.02758789 2.25878906 C70.34008789 4.75878906 70.34008789 4.75878906 70.02758789 7.25878906 C67.59018928 9.69618768 66.29280546 9.49696603 62.96679688 9.51873779 C61.91395508 9.51030853 61.91395508 9.51030853 60.83984375 9.50170898 C60.09988663 9.50360733 59.3599295 9.50550568 58.59754944 9.50746155 C56.14573657 9.51117368 53.69421829 9.50045996 51.24243164 9.48925781 C49.5437473 9.48806625 47.8450623 9.4876128 46.14637756 9.48786926 C42.58452232 9.4863037 39.02276749 9.47800781 35.4609375 9.46459961 C30.88513202 9.44759675 26.30943685 9.44378559 21.73360348 9.44454479 C18.22586505 9.44427347 14.71815096 9.43879861 11.21042061 9.43154335 C9.52264147 9.4283515 7.83485956 9.42638808 6.14707756 9.42564964 C3.79331596 9.42349224 1.43967366 9.41476153 -0.9140625 9.40405273 C-1.96994064 9.40473251 -1.96994064 9.40473251 -3.04714966 9.40542603 C-7.85793693 9.37326424 -7.85793693 9.37326424 -8.97241211 8.25878906 C-9.15991211 5.32128906 -9.15991211 5.32128906 -8.97241211 2.25878906 C-6.08817133 -0.62545172 -4.03833082 0.00493865 0 0 Z " fill="#FF7516" transform="translate(195.972412109375,148.7412109375)"/>
<path d="M0 0 C0.69097275 0.00404846 1.3819455 0.00809692 2.09385681 0.01226807 C2.82245407 0.00876343 3.55105133 0.00525879 4.30172729 0.00164795 C6.71625729 -0.00717295 9.13049558 -0.00131907 11.54502869 0.00543213 C13.21889808 0.00408558 14.89276708 0.00214513 16.56663513 -0.00036621 C20.07721169 -0.00331796 23.58768658 0.00098175 27.09825134 0.01031494 C31.60451093 0.02170954 36.1105323 0.01515033 40.61678314 0.00317001 C44.07395736 -0.00404725 47.53107483 -0.00176128 50.98825073 0.0034256 C52.65008573 0.00476247 54.31192584 0.00311308 55.97375488 -0.00153351 C58.29387616 -0.0065966 60.61360836 0.00110815 62.93370056 0.01226807 C63.62467331 0.0082196 64.31564606 0.00417114 65.02755737 0 C69.78524943 0.04252787 69.78524943 0.04252787 72.01377869 2.27105713 C72.26377869 4.77105713 72.26377869 4.77105713 72.01377869 7.27105713 C69.59210891 9.69272691 68.33235977 9.51257342 65.02755737 9.54211426 C64.33658463 9.5380658 63.64561188 9.53401733 62.93370056 9.52984619 C61.84080467 9.53510315 61.84080467 9.53510315 60.72583008 9.54046631 C58.31130009 9.5492872 55.89706179 9.54343333 53.48252869 9.53668213 C51.8086593 9.53802868 50.13479029 9.53996913 48.46092224 9.54248047 C44.95034568 9.54543221 41.43987079 9.54113251 37.92930603 9.53179932 C33.42304644 9.52040472 28.91702507 9.52696392 24.41077423 9.53894424 C20.95360002 9.54616151 17.49648254 9.54387554 14.03930664 9.53868866 C12.37747164 9.53735179 10.71563153 9.53900118 9.05380249 9.54364777 C6.73368121 9.54871086 4.41394901 9.54100611 2.09385681 9.52984619 C1.40288406 9.53389465 0.71191132 9.53794312 0 9.54211426 C-4.75769206 9.49958638 -4.75769206 9.49958638 -6.98622131 7.27105713 C-7.23622131 4.77105713 -7.23622131 4.77105713 -6.98622131 2.27105713 C-4.56455154 -0.15061265 -3.3048024 0.02954084 0 0 Z " fill="#FF710F" transform="translate(193.98622131347656,164.72894287109375)"/>
<path d="M0 0 C1.07585609 -0.00525696 1.07585609 -0.00525696 2.17344666 -0.01062012 C4.55070601 -0.01944171 6.92766911 -0.01358628 9.30493164 -0.00683594 C10.95398516 -0.00818262 12.6030383 -0.01012317 14.25209045 -0.01263428 C17.71139295 -0.01558624 21.17059229 -0.01128618 24.62988281 -0.00195312 C29.06654304 0.00943257 33.50296108 0.00288806 37.93961239 -0.00909805 C41.34621508 -0.01632235 44.75276029 -0.01402595 48.1593647 -0.00884247 C49.79525341 -0.00750709 51.43114731 -0.00914981 53.06702995 -0.01380157 C55.35342111 -0.0188752 57.63941938 -0.01114463 59.92578125 0 C61.22768906 0.00159119 62.52959686 0.00318237 63.87095642 0.00482178 C67.02758789 0.25878906 67.02758789 0.25878906 70.02758789 2.25878906 C70.34008789 4.75878906 70.34008789 4.75878906 70.02758789 7.25878906 C67.60591811 9.68045884 66.34616898 9.50030535 63.04136658 9.52984619 C62.35039383 9.52579773 61.65942108 9.52174927 60.94750977 9.51757812 C59.85461388 9.52283508 59.85461388 9.52283508 58.73963928 9.52819824 C56.32510929 9.53701914 53.91087099 9.53116526 51.49633789 9.52441406 C49.8224685 9.52576061 48.14859949 9.52770106 46.47473145 9.5302124 C42.96415488 9.53316415 39.45367999 9.52886444 35.94311523 9.51953125 C31.43685565 9.50813665 26.93083428 9.51469586 22.42458344 9.52667618 C18.96740922 9.53389344 15.51029174 9.53160747 12.05311584 9.52642059 C10.39128084 9.52508372 8.72944074 9.52673311 7.06761169 9.5313797 C4.74749042 9.53644279 2.42775822 9.52873804 0.10766602 9.51757812 C-0.58330673 9.52162659 -1.27427948 9.52567505 -1.9861908 9.52984619 C-6.74388286 9.48731832 -6.74388286 9.48731832 -8.97241211 7.25878906 C-9.22241211 4.75878906 -9.22241211 4.75878906 -8.97241211 2.25878906 C-6.08817133 -0.62545172 -4.03833082 0.00493865 0 0 Z " fill="#FF7516" transform="translate(254.972412109375,368.7412109375)"/>
<path d="M0 0 C0.71484055 0.00202423 1.42968109 0.00404846 2.16618347 0.00613403 C2.91574814 0.00438171 3.66531281 0.00262939 4.43759155 0.00082397 C6.92722354 -0.00359463 9.41678508 -0.00065653 11.90641785 0.00271606 C13.62895217 0.00204303 15.35148639 0.001073 17.07402039 -0.00018311 C20.68889772 -0.00166009 24.3037504 0.00049449 27.91862488 0.00515747 C32.56283277 0.01085476 37.20698289 0.00757576 41.85118866 0.00158501 C45.40953511 -0.00202059 48.96786775 -0.00088203 52.5262146 0.0017128 C54.23911547 0.00238207 55.95201757 0.00155363 57.66491699 -0.00076675 C60.05469606 -0.00329326 62.44438026 0.00054727 64.83415222 0.00613403 C65.90641304 0.00309769 65.90641304 0.00309769 67.00033569 0 C71.88590516 0.02126588 71.88590516 0.02126588 73.00016785 1.13552856 C73.12516785 4.13552856 73.12516785 4.13552856 73.00016785 7.13552856 C71.31784445 8.81785196 69.2459376 8.26128249 67.00033569 8.27105713 C66.28549515 8.2690329 65.5706546 8.26700867 64.83415222 8.2649231 C64.08458755 8.26667542 63.33502289 8.26842773 62.56274414 8.27023315 C60.07311216 8.27465176 57.58355061 8.27171366 55.09391785 8.26834106 C53.37138353 8.2690141 51.6488493 8.26998412 49.92631531 8.27124023 C46.31143797 8.27271722 42.69658529 8.27056263 39.08171082 8.26589966 C34.43750292 8.26020237 29.79335281 8.26348137 25.14914703 8.26947212 C21.59080059 8.27307772 18.03246794 8.27193916 14.47412109 8.26934433 C12.76122023 8.26867506 11.04831813 8.26950349 9.3354187 8.27182388 C6.94563963 8.27435039 4.55595544 8.27050986 2.16618347 8.2649231 C1.45134293 8.26694733 0.73650238 8.26897156 0 8.27105713 C-4.88556947 8.24979125 -4.88556947 8.24979125 -5.99983215 7.13552856 C-6.12483215 4.13552856 -6.12483215 4.13552856 -5.99983215 1.13552856 C-4.31750876 -0.54679483 -2.24560191 0.00977464 0 0 Z " fill="#FF700E" transform="translate(251.9998321533203,353.8644714355469)"/>
<path d="M0 0 C0.85758911 -0.00315216 1.71517822 -0.00630432 2.59875488 -0.009552 C3.53102905 -0.00752777 4.46330322 -0.00550354 5.42382812 -0.00341797 C6.84979309 -0.00485306 6.84979309 -0.00485306 8.30456543 -0.00631714 C10.31876695 -0.00699904 12.33297065 -0.00514409 14.34716797 -0.00097656 C17.44178167 0.00437155 20.53625022 -0.00092124 23.63085938 -0.00732422 C25.58268261 -0.00666344 27.53450576 -0.00538228 29.48632812 -0.00341797 C30.88473938 -0.00645432 30.88473938 -0.00645432 32.31140137 -0.009552 C33.16899048 -0.00639984 34.02657959 -0.00324768 34.91015625 0 C35.66880981 0.00079559 36.42746338 0.00159119 37.20910645 0.00241089 C38.95507812 0.12939453 38.95507812 0.12939453 39.95507812 1.12939453 C40.20507812 4.06689453 40.20507812 4.06689453 39.95507812 7.12939453 C35.99801284 9.76743806 32.57412383 9.41680748 27.98242188 9.39501953 C26.66414146 9.39788971 26.66414146 9.39788971 25.31922913 9.40081787 C23.4624096 9.40217838 21.60558052 9.39849128 19.7487793 9.39013672 C16.90001177 9.37942249 14.05187305 9.39004304 11.203125 9.40283203 C9.40038923 9.40151066 7.59765385 9.39894874 5.79492188 9.39501953 C4.93970444 9.39906799 4.084487 9.40311646 3.20335388 9.4072876 C-2.81499569 9.35932072 -2.81499569 9.35932072 -5.04492188 7.12939453 C-5.23242188 4.06689453 -5.23242188 4.06689453 -5.04492188 1.12939453 C-3.51407763 -0.40144971 -2.13289044 0.00223674 0 0 Z " fill="#FF7617" transform="translate(209.044921875,133.87060546875)"/>
<path d="M0 0 C0.88022827 0.00404846 1.76045654 0.00809692 2.6673584 0.01226807 C4.0210553 0.00939789 4.0210553 0.00939789 5.40209961 0.00646973 C7.31197386 0.00510748 9.22185736 0.00880669 11.13171387 0.01715088 C14.0617749 0.02784986 16.99122278 0.01725696 19.92126465 0.00445557 C21.77413059 0.00577715 23.62699615 0.00833953 25.4798584 0.01226807 C26.80020081 0.00619537 26.80020081 0.00619537 28.1472168 0 C34.3436918 0.04797647 34.3436918 0.04797647 36.5736084 2.27789307 C36.8236084 4.77789307 36.8236084 4.77789307 36.5736084 7.27789307 C33.88400656 9.9674949 31.80253322 9.52748469 28.1472168 9.55578613 C27.26698853 9.55173767 26.38676025 9.54768921 25.4798584 9.54351807 C24.1261615 9.54638824 24.1261615 9.54638824 22.74511719 9.54931641 C20.83524294 9.55067866 18.92535944 9.54697944 17.01550293 9.53863525 C14.0854419 9.52793628 11.15599402 9.53852917 8.22595215 9.55133057 C6.37308621 9.55000898 4.52022065 9.5474466 2.6673584 9.54351807 C1.34701599 9.54959076 1.34701599 9.54959076 0 9.55578613 C-6.196475 9.50780967 -6.196475 9.50780967 -8.4263916 7.27789307 C-8.6763916 4.77789307 -8.6763916 4.77789307 -8.4263916 2.27789307 C-5.73678977 -0.41170877 -3.65531642 0.02830144 0 0 Z " fill="#FF7414" transform="translate(271.4263916015625,337.72210693359375)"/>
</svg>
