<?xml version="1.0" standalone="no"?>
<!DOCTYPE svg PUBLIC "-//W3C//DTD SVG 20010904//EN"
 "http://www.w3.org/TR/2001/REC-SVG-20010904/DTD/svg10.dtd">
<svg version="1.0" xmlns="http://www.w3.org/2000/svg"
 width="4800.000000pt" height="2700.000000pt" viewBox="0 0 4800.000000 2700.000000"
 preserveAspectRatio="xMidYMid meet">

<g transform="translate(0.000000,2700.000000) scale(0.100000,-0.100000)"
fill="#000000" stroke="none">
<path d="M0 13500 l0 -13500 24000 0 24000 0 0 13500 0 13500 -24000 0 -24000
0 0 -13500z m15260 9142 c0 -5 -21 -30 -47 -55 -27 -25 -73 -70 -103 -99 -82
-79 -150 -155 -150 -167 0 -6 -3 -11 -8 -11 -8 0 -92 -104 -92 -114 0 -4 -15
-28 -34 -55 -49 -70 -100 -175 -121 -251 -9 -36 -22 -68 -27 -71 -16 -10 -23
-297 -9 -357 7 -28 14 -97 16 -154 2 -57 9 -179 15 -273 20 -306 4 -665 -41
-905 -5 -30 -16 -93 -24 -140 -8 -47 -22 -121 -31 -165 -9 -44 -21 -109 -28
-143 -6 -35 -14 -61 -18 -57 -4 4 -9 -8 -12 -26 -6 -46 -24 -144 -35 -199 -35
-171 -33 -406 4 -513 8 -23 15 -56 15 -74 0 -18 6 -38 14 -45 10 -9 10 -17 3
-29 -8 -13 -6 -24 6 -42 9 -14 21 -56 27 -94 6 -37 17 -93 25 -123 17 -69 27
-475 15 -615 -22 -249 -31 -337 -46 -430 -9 -55 -16 -107 -16 -115 -1 -23 -25
-116 -37 -138 -5 -10 -13 -42 -17 -71 -7 -52 -61 -158 -90 -174 -8 -4 -14 -13
-14 -18 0 -16 -42 -48 -63 -49 -30 0 -72 -27 -87 -54 -7 -14 -17 -26 -21 -26
-12 0 -62 50 -99 100 -19 25 -37 47 -40 50 -3 3 -9 12 -15 21 -5 9 -31 47 -56
85 -25 38 -63 96 -84 129 -51 80 -218 410 -244 483 -174 488 -231 729 -281
1182 -21 185 -12 663 16 895 12 103 65 384 93 500 53 217 159 522 246 710 20
44 44 96 53 115 24 52 130 248 165 305 93 151 242 367 279 406 8 8 25 30 38
49 25 36 42 56 120 144 95 107 189 201 284 284 54 48 113 101 131 117 56 52
153 124 255 190 41 27 77 52 78 57 2 4 14 8 27 8 12 0 28 7 35 15 14 16 30 20
30 7z m18839 -198 c33 -4 61 -10 61 -14 0 -4 -59 -10 -132 -14 -295 -16 -615
-113 -633 -193 -3 -15 -20 -39 -38 -52 -18 -13 -23 -20 -12 -16 43 14 110 23
119 15 5 -5 -9 -17 -31 -28 -36 -19 -74 -52 -60 -52 4 0 -4 -15 -16 -32 -62
-92 -111 -149 -172 -203 -37 -33 -85 -77 -106 -97 -21 -21 -43 -38 -49 -38 -5
0 -10 -5 -10 -11 0 -6 -16 -26 -35 -43 -19 -18 -42 -50 -50 -72 -11 -27 -14
-30 -10 -11 4 19 2 26 -5 22 -5 -3 -10 -13 -10 -22 0 -9 -7 -24 -15 -33 -34
-38 -46 -334 -20 -500 46 -295 170 -639 333 -925 50 -87 194 -309 220 -337 8
-10 11 -18 6 -18 -12 1 -81 90 -122 160 -18 30 -43 65 -54 78 -12 12 -18 22
-15 22 4 0 0 11 -9 25 -9 14 -20 22 -25 19 -5 -3 -6 2 -3 10 3 9 1 16 -5 16
-6 0 -11 7 -11 16 0 8 -5 12 -10 9 -6 -4 -9 -3 -8 2 6 17 -26 83 -39 83 -8 0
-11 5 -8 11 4 5 0 18 -8 27 -8 9 -22 32 -31 50 -9 18 -21 30 -26 27 -6 -4 -10
8 -10 27 -1 19 -10 45 -24 62 -14 17 -22 37 -19 50 4 18 3 19 -7 6 -10 -12
-11 -11 -7 8 5 23 -8 31 -16 10 -4 -9 -6 -8 -6 3 -1 8 5 21 12 28 10 11 9 12
-2 6 -10 -6 -12 -2 -6 16 5 18 4 20 -4 9 -8 -12 -13 -7 -26 23 -9 21 -19 36
-23 33 -4 -2 -8 6 -9 17 -1 12 -4 33 -7 47 -2 14 -5 31 -5 38 -1 7 -5 11 -10
7 -11 -6 -27 40 -37 103 -6 42 -18 54 -27 30 -3 -7 -6 6 -6 29 -1 23 -6 45
-12 48 -6 4 -8 13 -5 21 3 7 1 16 -3 18 -4 3 -11 27 -14 53 -4 26 -13 86 -22
132 -18 98 -23 395 -7 414 6 7 13 35 16 62 3 28 10 61 15 75 5 14 14 45 21 70
26 95 32 110 41 110 5 0 9 6 9 13 0 8 9 22 20 32 11 10 17 22 14 26 -3 5 2 6
10 3 11 -4 13 0 9 16 -4 17 3 30 31 56 20 18 36 38 36 44 0 6 11 15 24 21 14
7 27 22 30 35 4 13 13 24 22 24 8 0 26 11 40 25 13 13 28 25 32 26 26 5 53 21
59 34 3 9 12 14 21 10 16 -6 45 13 37 25 -2 4 7 5 20 2 15 -2 25 0 25 7 0 7
-4 10 -9 7 -5 -4 -7 3 -4 15 3 11 9 17 12 12 9 -14 42 -24 54 -16 7 4 3 10 -9
15 -14 6 -11 7 13 5 20 -2 34 2 37 10 3 7 16 12 28 10 13 -1 22 3 21 10 -1 6
5 10 15 8 9 -1 26 3 37 9 11 6 30 11 42 13 12 1 43 9 68 18 112 37 370 63 504
49z m-7548 -71 c-18 -22 -31 -49 -31 -65 0 -16 -5 -28 -11 -28 -7 0 -66 -24
-133 -54 -67 -30 -134 -60 -150 -65 -15 -6 -110 -48 -210 -92 -99 -45 -203
-92 -231 -104 -217 -97 -265 -119 -265 -127 0 -4 -13 -8 -30 -8 -22 0 -33 -7
-43 -26 -8 -16 -17 -22 -21 -16 -4 7 -15 7 -36 -1 -42 -16 -37 -27 8 -20 37 6
37 6 19 -15 -18 -20 -18 -20 5 -25 18 -3 15 -5 -9 -6 -32 -1 -33 -3 -33 -41 0
-22 -4 -40 -10 -40 -13 0 -13 -77 -1 -82 16 -5 18 -551 3 -556 -14 -4 -16 -82
-2 -82 6 0 10 -18 10 -40 0 -36 -2 -40 -25 -40 l-25 0 0 -120 c0 -100 3 -120
15 -120 23 0 18 -20 -12 -48 -18 -16 -23 -27 -15 -30 18 -6 16 -82 -3 -82 -11
0 -15 -11 -15 -40 0 -22 -4 -40 -10 -40 -5 0 -10 -16 -10 -35 0 -20 -7 -47
-17 -61 -14 -22 -16 -52 -14 -205 2 -157 0 -179 -13 -179 -13 0 -16 -14 -16
-80 0 -47 -4 -80 -10 -80 -5 0 -10 -5 -10 -11 0 -7 -12 -23 -27 -38 l-28 -26
28 -3 c35 -4 34 -16 -3 -54 -30 -30 -30 -30 -30 -149 0 -73 -4 -119 -10 -119
-5 0 -10 18 -10 40 0 33 -3 40 -19 40 -18 0 -19 -7 -14 -160 5 -144 4 -160
-11 -160 -13 0 -16 -12 -16 -80 0 -47 -4 -80 -10 -80 -6 0 -10 -33 -10 -80 0
-64 -3 -80 -15 -80 -11 0 -15 -11 -15 -40 0 -29 -4 -40 -15 -40 -12 0 -15 -16
-15 -80 0 -47 -4 -80 -10 -80 -6 0 -10 -33 -10 -80 0 -67 -3 -80 -16 -80 -14
0 -15 -10 -9 -80 7 -77 6 -80 -14 -80 -18 0 -21 6 -21 40 0 22 -4 40 -10 40
-5 0 -10 -18 -10 -40 0 -22 5 -40 10 -40 6 0 10 -33 10 -79 0 -68 3 -80 18
-83 14 -3 13 -7 -10 -29 -20 -19 -28 -36 -28 -61 0 -20 -7 -41 -15 -48 -9 -8
-15 -30 -15 -56 0 -32 -4 -44 -15 -44 -12 0 -15 -16 -15 -80 0 -47 -4 -80 -10
-80 -5 0 -10 -18 -10 -40 0 -29 -4 -40 -15 -40 -12 0 -15 -16 -15 -83 0 -89
-5 -101 -55 -132 -24 -16 -27 -20 -12 -23 14 -3 17 -14 17 -67 0 -43 -5 -66
-15 -75 -9 -8 -15 -30 -15 -56 0 -32 -4 -44 -15 -44 -12 0 -15 -20 -15 -120
l0 -120 -25 0 c-25 0 -25 -1 -25 -80 0 -64 -3 -80 -15 -80 -12 0 -15 -16 -15
-80 0 -47 -4 -80 -10 -80 -5 0 -10 -18 -10 -40 0 -29 -4 -40 -15 -40 -12 0
-15 -16 -15 -80 0 -64 -3 -80 -15 -80 -12 0 -15 -16 -15 -80 0 -47 -4 -80 -10
-80 -5 0 -10 7 -10 16 0 14 -2 14 -16 3 -10 -8 -12 -15 -5 -17 6 -2 0 -18 -16
-39 -21 -28 -26 -44 -24 -79 1 -26 -2 -44 -8 -44 -6 0 -11 7 -11 15 0 10 -10
15 -32 15 -18 0 -50 6 -73 14 -22 8 -67 20 -100 27 -33 7 -66 19 -74 27 -8 7
-22 11 -33 9 -10 -3 -16 -1 -12 4 3 5 -13 9 -35 9 -22 0 -43 5 -46 10 -3 6
-16 10 -29 10 -12 0 -27 5 -34 12 -9 9 -12 9 -12 -1 0 -9 -7 -9 -27 3 -16 8
-55 20 -88 26 -33 7 -78 18 -100 25 -44 13 -180 46 -295 70 -167 35 -527 115
-560 125 -81 24 -140 5 -140 -44 0 -16 11 -28 37 -42 20 -10 49 -31 63 -45 14
-14 31 -24 38 -21 7 2 12 -4 12 -13 0 -9 6 -15 13 -12 6 2 28 -9 48 -24 20
-16 42 -29 47 -29 6 0 14 -9 17 -20 4 -11 11 -17 17 -14 6 4 16 1 22 -7 6 -8
29 -23 51 -34 22 -11 47 -28 56 -37 9 -10 21 -18 27 -18 6 0 20 -11 31 -26 11
-14 21 -25 23 -24 9 3 45 -16 55 -29 7 -9 13 -12 13 -8 0 5 6 2 14 -5 33 -31
57 -48 70 -48 7 0 16 -9 19 -19 3 -11 26 -29 53 -41 27 -13 53 -29 57 -36 4
-8 14 -14 22 -14 7 0 27 -11 43 -25 17 -14 35 -25 41 -25 7 0 14 -7 17 -15 4
-8 14 -15 25 -15 10 0 22 -7 27 -15 4 -9 24 -23 43 -33 19 -9 38 -27 44 -39 5
-13 13 -23 18 -23 4 0 5 5 1 11 -3 6 5 3 20 -6 14 -10 26 -22 26 -27 0 -6 7
-8 15 -5 8 4 22 -4 34 -18 10 -14 26 -25 35 -25 9 0 16 -4 16 -10 0 -5 7 -10
16 -10 10 0 14 -6 10 -15 -3 -10 1 -15 11 -15 10 0 27 -12 40 -27 12 -16 22
-22 23 -15 0 6 -4 12 -10 12 -5 0 -10 5 -10 12 0 7 17 -5 39 -26 21 -21 38
-43 38 -49 0 -7 1 -23 1 -36 2 -20 4 -21 17 -11 13 11 13 14 -2 26 -15 10 -16
15 -5 26 11 11 15 10 25 -2 7 -8 18 -16 26 -18 19 -4 43 -30 37 -41 -3 -5 10
-12 29 -15 21 -4 35 -13 35 -21 0 -8 5 -15 10 -15 6 0 9 6 8 13 -4 17 50 10
69 -9 8 -8 10 -14 4 -14 -6 0 -11 -7 -11 -15 0 -17 25 -20 35 -5 8 13 65 13
85 0 11 -7 6 -10 -20 -10 -36 0 -69 -14 -58 -25 3 -3 31 -9 62 -12 54 -6 56
-7 56 -34 l0 -29 80 0 c76 0 80 -1 86 -24 3 -13 4 -37 1 -52 -4 -29 -4 -28 -6
4 -1 31 -3 32 -41 32 -29 0 -40 -4 -40 -15 0 -11 -11 -15 -40 -15 l-40 0 0
-95 0 -95 40 0 40 0 0 -40 c0 -22 5 -40 10 -40 6 0 10 -18 10 -40 0 -22 -4
-40 -10 -40 -5 0 -10 18 -10 40 l0 40 -60 0 -60 0 0 -40 c0 -33 -3 -40 -20
-40 -18 0 -20 -7 -20 -80 l0 -80 40 0 40 0 0 -80 c0 -47 -4 -80 -10 -80 -5 0
-10 18 -10 40 l0 40 -70 0 -70 0 0 -40 c0 -30 4 -40 16 -40 9 0 14 -5 12 -12
-6 -18 -28 -21 -28 -4 0 12 -10 16 -40 16 -36 0 -40 -2 -40 -25 0 -22 -4 -25
-40 -25 -29 0 -40 -4 -40 -15 0 -11 11 -15 40 -15 l40 0 0 -40 0 -40 40 0 c30
0 40 -4 40 -16 0 -9 5 -14 12 -12 18 6 21 28 4 28 -12 0 -16 10 -16 40 0 36 3
40 24 40 13 0 26 7 30 15 3 8 10 15 16 15 5 0 10 -7 10 -15 0 -8 5 -15 10 -15
6 0 10 -18 10 -40 l0 -40 70 0 c40 0 70 -4 70 -10 0 -5 -18 -10 -40 -10 -38 0
-40 -2 -40 -30 0 -23 -4 -30 -20 -30 -17 0 -20 -7 -20 -40 0 -38 -2 -40 -30
-40 -28 0 -30 -2 -30 -40 0 -22 5 -40 10 -40 6 0 10 -18 10 -40 0 -29 -4 -40
-15 -40 -11 0 -15 -12 -15 -45 0 -36 -5 -51 -25 -69 -14 -13 -25 -28 -25 -35
0 -6 -17 -11 -40 -11 -23 0 -40 -5 -40 -11 0 -7 -12 -23 -27 -38 l-28 -26 28
-3 c24 -3 27 -7 27 -43 0 -39 0 -39 -40 -39 -29 0 -40 -4 -40 -15 0 -11 11
-15 40 -15 29 0 40 4 40 15 0 12 16 15 80 15 l80 0 0 40 c0 22 5 40 10 40 6 0
10 -18 10 -40 0 -22 -4 -40 -10 -40 -5 0 -10 -18 -10 -40 0 -22 5 -40 10 -40
6 0 10 -18 10 -40 0 -33 -3 -40 -20 -40 -17 0 -20 -7 -20 -40 0 -33 -3 -40
-20 -40 -17 0 -20 7 -20 40 0 22 -4 40 -10 40 -5 0 -10 18 -10 40 l0 40 -95 0
-95 0 0 -40 c0 -36 -2 -40 -25 -40 -21 0 -25 -5 -25 -31 l0 -31 52 4 c35 2 53
-1 55 -9 3 -9 -9 -13 -41 -13 l-46 0 0 -40 c0 -28 4 -40 14 -40 8 0 16 -7 20
-15 4 -11 20 -15 56 -15 l50 0 0 65 0 65 40 0 40 0 0 -50 c0 -49 1 -50 30 -50
28 0 30 -2 30 -40 l0 -40 -70 0 -70 0 0 -60 c0 -65 -21 -100 -60 -100 -17 0
-20 -7 -20 -40 l0 -40 -40 0 -40 0 0 40 0 40 40 0 c36 0 40 3 40 24 0 13 7 26
15 30 24 9 17 26 -10 26 -22 0 -25 4 -25 40 0 28 -4 40 -14 40 -8 0 -16 7 -20
15 -3 8 -10 15 -16 15 -5 0 -10 -7 -10 -15 0 -8 5 -15 10 -15 6 0 10 -18 10
-40 0 -22 -4 -40 -10 -40 -5 0 -10 -18 -10 -40 0 -29 -4 -40 -15 -40 -11 0
-15 -11 -15 -40 0 -29 -4 -40 -15 -40 -11 0 -15 -11 -15 -40 0 -22 -4 -40 -10
-40 -6 0 -10 -47 -10 -120 0 -73 -4 -120 -10 -120 -5 0 -10 -18 -10 -40 l0
-40 60 0 60 0 0 -40 0 -40 -50 0 c-47 0 -50 -2 -50 -25 0 -22 -4 -25 -40 -25
l-40 0 0 -55 0 -55 -40 0 -40 0 0 -40 0 -40 80 0 80 0 0 80 c0 47 4 80 10 80
6 0 10 -33 10 -80 0 -47 -4 -80 -10 -80 -5 0 -10 -18 -10 -40 l0 -40 40 0 40
0 0 -40 0 -40 -40 0 -40 0 0 -80 0 -80 -40 0 -40 0 0 80 0 80 -36 0 -36 0 32
-40 c17 -22 27 -40 21 -40 -18 0 -14 -100 4 -106 8 -4 15 -17 15 -30 0 -19 -5
-24 -24 -24 -13 0 -26 7 -30 15 -3 8 -10 15 -16 15 -5 0 -10 -7 -10 -15 0 -12
-16 -15 -85 -15 l-85 0 0 40 c0 37 -2 40 -29 40 -27 0 -28 -2 -35 -61 -3 -34
-6 -75 -6 -91 0 -29 -46 -88 -69 -88 -7 0 -11 -25 -11 -65 l0 -65 -40 0 c-36
0 -40 3 -40 25 0 14 -4 25 -10 25 -13 0 -13 -23 2 -55 7 -16 19 -25 35 -25 20
0 23 -5 23 -40 0 -29 4 -40 15 -40 9 0 15 -10 15 -26 0 -14 4 -23 10 -19 6 3
10 15 10 26 0 14 7 19 30 19 28 0 30 2 30 40 l0 40 40 0 c38 0 40 -2 40 -30 0
-28 2 -30 40 -30 22 0 40 -4 40 -10 0 -5 -18 -10 -40 -10 l-40 0 0 -80 0 -80
-40 0 c-36 0 -40 -2 -40 -25 0 -25 -1 -25 -80 -25 -64 0 -80 -3 -80 -15 0 -8
-7 -15 -15 -15 -11 0 -15 -11 -15 -40 0 -29 4 -40 15 -40 11 0 15 -11 15 -40
0 -29 -4 -40 -15 -40 -11 0 -15 -11 -15 -40 0 -36 -2 -40 -25 -40 -14 0 -25
-4 -25 -10 0 -5 -18 -10 -40 -10 l-40 0 0 -70 0 -70 40 0 40 0 0 -40 0 -40
-80 0 -80 0 0 -40 0 -40 -80 0 -80 0 0 -120 0 -120 -40 0 -40 0 0 -40 c0 -22
-4 -40 -10 -40 -14 0 -13 77 1 82 6 2 9 15 7 28 l-3 25 -28 -29 c-31 -33 -40
-106 -12 -106 11 0 15 -11 15 -40 0 -36 -2 -40 -25 -40 -22 0 -25 -4 -25 -40
0 -38 -2 -40 -30 -40 -28 0 -30 -2 -30 -40 0 -22 -4 -40 -10 -40 -5 0 -10 18
-10 40 l0 40 -40 0 c-29 0 -40 4 -40 15 0 11 -11 15 -40 15 -29 0 -40 -4 -40
-15 0 -11 11 -15 40 -15 l40 0 0 -40 0 -40 -80 0 -80 0 0 -40 0 -40 40 0 c22
0 40 -4 40 -10 0 -5 -18 -10 -40 -10 -38 0 -40 -2 -40 -30 0 -28 -2 -30 -40
-30 l-40 0 0 -40 0 -40 -40 0 -40 0 0 -70 0 -70 40 0 c22 0 40 -4 40 -10 0 -5
-4 -10 -10 -10 -5 0 -10 -18 -10 -40 0 -33 -3 -40 -20 -40 -17 0 -20 7 -20 40
0 22 -4 40 -10 40 -5 0 -10 -7 -10 -15 0 -19 -19 -19 -26 0 -4 8 -17 15 -30
15 -37 0 -30 -34 16 -80 45 -45 53 -80 19 -80 -12 0 -28 8 -35 17 -19 27 -24
14 -26 -73 -1 -43 -3 -71 -5 -61 -5 18 -29 22 -51 8 -12 -7 -11 -13 3 -37 l16
-29 -6 28 c-3 15 -1 27 4 27 13 0 22 -28 16 -53 -4 -15 3 -31 20 -49 14 -15
25 -34 25 -42 0 -8 5 -18 10 -21 6 -3 10 -1 10 5 0 6 4 9 10 5 5 -3 7 -12 4
-20 -3 -8 6 -29 20 -48 14 -19 26 -39 26 -45 0 -7 5 -12 11 -12 6 0 8 9 4 20
-7 23 10 27 19 4 3 -8 10 -12 16 -9 5 3 10 1 10 -4 0 -6 -4 -11 -9 -11 -19 0
-20 -33 -4 -63 10 -18 21 -33 26 -35 4 -2 7 -8 7 -14 0 -14 47 -58 54 -50 3 3
6 -2 6 -11 0 -9 12 -24 28 -34 15 -10 33 -23 40 -30 7 -7 19 -10 27 -7 27 11
27 -23 1 -51 -14 -15 -26 -22 -26 -15 0 7 -2 11 -5 8 -7 -6 15 -58 24 -58 3 0
17 -10 31 -21 24 -20 25 -21 2 -16 -14 3 -20 1 -15 -6 10 -16 -92 -1 -122 19
-14 9 -34 14 -45 11 -10 -3 -20 -2 -22 2 -2 3 -25 17 -53 30 -27 13 -63 30
-78 38 -31 17 -57 11 -57 -12 0 -30 -38 -55 -85 -55 l-45 0 0 -55 c0 -54 0
-55 -30 -55 -28 0 -30 -2 -30 -40 0 -22 -4 -40 -10 -40 -5 0 -10 -18 -10 -40
0 -30 4 -40 16 -40 14 0 15 -2 3 -17 -13 -15 -14 -15 -17 0 -2 10 -10 17 -18
17 -10 0 -14 -13 -14 -45 0 -36 -5 -51 -25 -69 -14 -13 -25 -28 -25 -35 0 -6
-7 -11 -15 -11 -12 0 -15 -16 -15 -80 0 -64 -3 -80 -15 -80 -12 0 -15 -16 -15
-80 l0 -80 -31 0 c-30 0 -30 -1 -29 -42 3 -64 3 -64 -37 -89 -37 -22 -37 -22
-14 -28 l24 -6 -35 -38 c-20 -20 -40 -37 -46 -37 -6 0 -20 -21 -32 -47 -49
-111 -54 -118 -104 -142 -29 -15 -56 -38 -68 -57 -10 -18 -25 -35 -33 -38 -8
-3 -15 -12 -15 -21 0 -8 -7 -15 -15 -15 -11 0 -15 -11 -15 -40 0 -39 1 -40 35
-40 l35 0 -37 -40 c-23 -24 -47 -40 -60 -40 -16 0 -23 -6 -23 -20 0 -22 -44
-91 -66 -103 -8 -5 -14 -23 -14 -44 0 -43 -24 -73 -57 -73 -20 0 -23 -5 -23
-40 0 -33 -3 -40 -20 -40 -17 0 -20 -7 -20 -40 0 -33 -3 -40 -20 -40 -16 0
-20 -7 -20 -36 0 -26 -9 -47 -35 -79 -25 -30 -32 -45 -23 -48 10 -4 9 -9 -4
-20 -13 -10 -18 -29 -18 -70 0 -39 -6 -67 -20 -89 -13 -22 -20 -51 -20 -85 0
-46 -3 -53 -20 -53 -18 0 -20 -7 -20 -80 0 -64 -3 -80 -15 -80 -8 0 -15 -8
-15 -19 0 -10 -3 -46 -6 -80 -6 -54 -5 -61 11 -61 14 0 10 -9 -19 -44 -26 -33
-36 -54 -36 -80 0 -25 4 -36 15 -36 8 0 15 -8 15 -19 0 -10 3 -46 6 -80 7 -58
6 -61 -15 -61 -18 0 -21 -6 -21 -40 0 -27 4 -40 14 -40 14 0 26 -79 26 -181 0
-52 -2 -59 -20 -59 -17 0 -20 -7 -20 -40 0 -33 3 -40 20 -40 18 0 20 -7 20
-80 0 -47 -4 -80 -10 -80 -5 0 -10 -22 -10 -48 0 -34 6 -54 20 -70 11 -12 20
-26 20 -32 0 -5 5 -10 10 -10 6 0 10 -5 10 -11 0 -5 13 -24 30 -42 16 -18 30
-36 30 -41 0 -4 17 -29 38 -55 21 -25 63 -82 93 -126 56 -82 67 -97 84 -118 6
-7 60 -79 120 -162 l109 -149 1 -82 c0 -65 -3 -80 -14 -76 -13 5 -251 321
-875 1162 -55 74 -157 212 -226 305 -263 353 -516 694 -599 805 -85 115 -297
400 -636 855 -98 132 -357 479 -575 770 -217 292 -526 705 -685 918 -910 1219
-1074 1437 -1113 1472 -99 88 -100 122 -18 420 33 120 144 522 149 540 3 11
51 184 106 385 56 201 153 552 216 780 63 228 139 503 169 610 30 107 81 294
115 415 33 121 94 344 136 495 42 151 82 298 90 325 7 28 50 183 95 345 45
162 92 333 105 380 13 47 46 166 73 265 164 592 217 781 242 875 16 58 51 186
78 285 28 99 102 369 166 600 63 231 147 535 186 675 38 140 104 379 146 530
41 151 112 405 156 564 101 359 94 348 273 411 50 18 270 110 490 205 220 95
429 185 465 200 36 15 85 37 110 48 25 12 95 43 155 69 145 64 216 103 208
117 -4 5 -8 28 -9 51 -1 22 -6 74 -10 115 -19 159 -6 592 20 710 3 14 8 52 11
85 3 33 10 78 15 100 5 22 14 68 21 103 7 34 16 62 19 62 3 0 7 14 8 30 3 38
29 117 48 148 8 12 12 26 9 31 -2 5 2 11 10 14 7 3 17 23 21 44 3 21 15 65 26
98 30 89 21 244 -18 335 -15 36 -31 67 -34 70 -3 3 -14 23 -25 45 -19 39 -94
150 -125 184 -8 9 -37 44 -65 76 -27 33 -58 69 -68 80 -27 29 -40 55 -27 55
10 0 50 -20 60 -30 3 -3 32 -25 65 -49 251 -186 595 -571 780 -876 26 -44 63
-103 81 -131 98 -152 269 -528 345 -761 19 -57 40 -103 47 -103 13 0 128 49
1102 465 338 145 759 325 935 400 176 75 334 142 351 150 17 8 105 46 195 84
90 38 490 208 889 379 399 171 815 349 925 396 110 47 210 86 223 86 23 0 23
0 -7 -37z m417 -58 c58 -27 101 -67 212 -200 41 -49 102 -121 135 -160 33 -39
102 -122 154 -183 51 -62 99 -112 105 -112 6 0 31 10 56 21 138 63 395 170
420 176 l30 5 -27 -47 c-24 -43 -26 -59 -31 -191 -3 -79 -8 -144 -12 -144 -5
0 -11 36 -15 80 -4 49 -11 80 -19 80 -6 0 -4 4 4 10 8 5 11 12 7 16 -4 4 1 13
11 20 9 7 14 15 11 18 -3 4 -17 -2 -30 -12 -13 -11 -37 -24 -54 -30 l-30 -10
29 -1 29 -1 -6 -67 c-4 -38 -7 -94 -7 -125 l0 -58 -34 0 c-19 0 -36 -6 -39
-12 -3 -9 -11 -4 -25 12 -12 14 -21 20 -22 13 0 -6 5 -15 10 -18 6 -3 10 -11
10 -17 0 -6 -10 -3 -22 8 l-22 19 23 -32 c27 -40 39 -48 71 -48 27 0 50 16 50
35 0 17 26 40 44 40 24 0 19 -20 -11 -49 -24 -22 -25 -26 -10 -29 23 -5 22
-29 -3 -42 -11 -6 -20 -20 -20 -31 0 -27 30 -71 45 -65 7 2 12 -3 11 -12 -1
-11 6 -16 19 -15 11 1 14 0 8 -3 -15 -6 24 -67 78 -124 19 -20 52 -57 74 -84
52 -64 111 -134 142 -169 13 -15 67 -81 120 -145 53 -64 99 -119 102 -122 6
-5 256 -301 345 -408 21 -26 60 -72 86 -102 26 -30 113 -132 191 -226 210
-250 585 -694 1054 -1249 84 -99 230 -272 325 -385 95 -113 194 -230 220 -260
64 -74 317 -373 585 -691 392 -464 636 -752 678 -799 91 -103 135 -209 123
-300 -5 -37 -110 -429 -205 -765 -11 -38 -68 -243 -126 -455 -59 -212 -142
-515 -187 -675 -44 -159 -89 -321 -99 -360 -67 -252 -228 -827 -233 -832 -15
-16 -167 31 -275 83 -64 31 -122 61 -129 67 -19 15 13 34 71 42 42 7 50 12 71
49 24 41 72 176 121 341 15 50 31 104 36 120 25 82 83 288 100 350 19 74 37
141 89 325 18 63 36 129 40 145 22 84 53 196 95 350 26 94 62 224 80 290 18
66 81 296 140 510 80 290 107 404 107 445 -1 76 -47 256 -76 300 -20 30 -199
248 -284 344 -29 34 -357 423 -417 496 -22 27 -108 129 -190 227 -83 98 -251
297 -374 443 -122 146 -257 306 -299 355 -175 207 -1340 1590 -1456 1730 -22
27 -59 70 -81 95 -22 25 -105 124 -185 219 -80 96 -175 208 -211 250 -36 42
-73 85 -82 96 -26 33 -181 218 -332 396 -77 92 -192 228 -255 304 -63 75 -129
153 -146 173 -226 265 -646 763 -669 793 -16 21 -38 41 -47 44 -10 4 -18 10
-18 15 0 10 161 -46 248 -85z m5637 -27 c-15 -24 -36 -63 -47 -88 -11 -25 -29
-56 -38 -70 -26 -38 -86 -233 -103 -340 -87 -530 83 -1164 497 -1853 101 -169
96 -158 85 -179 -6 -10 -14 -16 -20 -13 -5 4 -9 -1 -9 -11 0 -15 -27 -54 -77
-109 -12 -13 -24 -34 -28 -45 -3 -11 -11 -20 -16 -20 -5 0 -9 -4 -9 -9 0 -12
-52 -91 -60 -91 -3 0 -14 -16 -24 -35 -11 -19 -23 -35 -28 -35 -4 0 -8 -7 -8
-15 0 -8 -4 -15 -8 -15 -14 0 -43 -60 -36 -73 4 -6 23 -31 42 -55 19 -24 31
-46 28 -50 -4 -3 -10 -2 -14 4 -4 6 -28 37 -53 70 -26 32 -84 115 -130 184
-274 413 -448 818 -530 1240 -20 98 -23 148 -23 340 0 197 3 238 23 330 35
164 107 345 157 399 13 14 24 35 24 46 0 20 144 213 261 349 132 153 161 186
165 186 3 0 -7 -19 -21 -42z m625 -22 c0 -3 -4 -8 -10 -11 -5 -3 -10 -1 -10 4
0 6 5 11 10 11 6 0 10 -2 10 -4z m-4894 -450 c164 -55 191 -74 335 -246 26
-30 100 -118 166 -195 136 -161 285 -343 298 -365 5 -8 -20 6 -55 31 -36 26
-116 78 -177 116 -62 39 -131 86 -154 104 -43 35 -189 198 -344 384 -66 78
-112 130 -154 171 -19 19 -30 34 -24 34 5 0 54 -15 109 -34z m-228 -237 c-2
-6 -8 -10 -13 -10 -5 0 -11 4 -13 10 -2 6 4 11 13 11 9 0 15 -5 13 -11z m-188
-199 c0 -5 -7 -10 -15 -10 -8 0 -15 5 -15 10 0 6 7 10 15 10 8 0 15 -4 15 -10z
m-41 -19 c9 -6 10 -11 2 -15 -13 -8 -31 1 -31 15 0 11 11 11 29 0z m7761 -81
c0 -26 -211 -280 -230 -277 -33 5 -9 50 91 170 100 121 139 151 139 107z
m-7636 -49 c-9 -10 -26 18 -18 30 5 9 9 8 14 -7 4 -10 6 -21 4 -23z m-34 -7
c0 -8 -5 -12 -10 -9 -6 4 -8 11 -5 16 9 14 15 11 15 -7z m8144 -339 c3 -8 2
-23 -1 -32 -6 -18 -187 -231 -208 -245 -37 -27 -48 15 -12 53 49 54 179 212
184 225 7 19 29 18 37 -1z m-874 -90 c0 -14 -233 -287 -251 -293 -5 -2 -9 8
-9 23 0 20 21 51 72 109 150 169 188 202 188 161z m-381 -443 c-8 -11 -48 -59
-89 -107 -41 -48 -90 -107 -109 -131 -19 -24 -38 -41 -43 -38 -14 9 -9 46 10
63 9 9 48 54 86 101 96 118 135 155 148 142 8 -8 7 -17 -3 -30z m-1785 -58 c3
-8 2 -12 -4 -9 -6 3 -10 10 -10 16 0 14 7 11 14 -7z m3196 -203 c26 -83 26
-184 0 -253 -13 -35 -40 -75 -77 -114 -32 -34 -87 -99 -122 -144 l-63 -83 -2
-116 c-3 -136 -11 -155 -95 -246 -31 -34 -78 -94 -105 -135 -53 -80 -134 -181
-176 -217 -14 -13 -39 -22 -58 -23 -31 0 -33 2 -29 29 6 38 42 86 135 181 l73
75 -43 3 c-52 4 -77 22 -30 22 82 0 224 90 262 166 33 66 44 154 31 237 -12
72 -31 141 -44 153 -12 12 -8 44 6 45 6 1 27 0 44 -1 73 -4 204 84 244 162 40
79 43 150 14 318 -10 53 11 19 35 -59z m1417 -18 c6 -16 34 -82 61 -148 166
-396 226 -809 166 -1148 -124 -705 -694 -1098 -1519 -1046 -248 16 -231 24 52
24 250 1 277 3 398 27 147 31 283 77 400 137 97 50 98 51 194 127 193 152 315
335 395 591 67 212 74 555 18 833 -30 147 -85 346 -123 441 -39 100 -68 189
-61 189 4 0 12 -12 19 -27z m-3247 -205 c0 -15 -200 -246 -224 -260 -28 -16
-39 2 -14 26 13 12 42 44 65 71 22 28 65 78 94 113 49 59 79 77 79 50z m-940
-182 c0 -5 -13 8 -30 29 -16 21 -30 40 -30 43 0 10 59 -62 60 -72z m71 -83
c13 -16 12 -17 -3 -4 -17 13 -22 21 -14 21 2 0 10 -8 17 -17z m-420 -41 c11
-30 7 -37 -108 -174 -40 -47 -73 -89 -73 -93 0 -4 -18 -24 -40 -45 -22 -21
-40 -46 -40 -55 0 -9 -4 -14 -9 -11 -8 6 -26 -21 -23 -36 1 -3 -6 -12 -15 -20
-12 -9 -15 -9 -9 0 4 6 2 12 -4 12 -36 0 -13 40 102 175 199 236 200 237 195
262 -5 29 11 19 24 -15z m1779 -104 c0 -13 -121 -162 -188 -230 -20 -21 -44
-38 -54 -38 -10 0 -18 1 -18 3 0 2 21 26 46 53 25 27 77 88 116 137 66 81 98
105 98 75z m-1580 -151 c0 -16 -51 -84 -151 -203 -83 -98 -155 -180 -160 -182
-5 -2 -9 3 -9 12 0 13 179 238 216 271 24 22 84 103 84 114 0 6 5 11 10 11 6
0 10 -10 10 -23z m-566 -169 l18 -33 -26 29 c-28 31 -30 36 -18 36 4 0 16 -15
26 -32z m51 -69 c11 -16 1 -19 -13 -3 -7 8 -8 14 -3 14 5 0 13 -5 16 -11z
m3332 -1305 c-3 -3 -12 -4 -19 -1 -8 3 -5 6 6 6 11 1 17 -2 13 -5z m910 -181
c4 -12 -35 -38 -44 -30 -2 3 1 15 7 27 12 22 31 23 37 3z m-4904 -211 c137
-95 221 -183 611 -647 28 -33 53 -62 56 -65 3 -3 80 -93 170 -200 91 -107 249
-294 353 -415 218 -254 249 -306 250 -412 1 -68 -18 -139 -389 -1483 -19 -69
-59 -213 -89 -320 -275 -1001 -328 -1198 -333 -1218 -7 -33 -18 -35 -101 -17
-92 19 -130 19 -81 0 36 -14 530 -164 630 -192 97 -27 120 -40 137 -80 16 -39
13 -124 -6 -147 -5 -6 -21 -49 -36 -96 -14 -47 -30 -94 -34 -105 -54 -131
-250 -706 -293 -855 -25 -89 -105 -355 -203 -675 -27 -89 -118 -402 -200 -690
-75 -262 -76 -266 -108 -289 -33 -24 -56 -15 -72 28 -10 28 14 129 165 706 28
107 55 213 60 236 5 22 30 121 55 220 48 183 71 272 86 334 4 19 15 64 24 100
9 36 23 94 30 130 8 36 23 99 33 140 19 72 37 166 45 239 2 19 0 51 -5 70 -5
20 -11 50 -14 66 -3 17 -12 45 -20 64 -8 18 -14 44 -14 56 0 13 -9 42 -20 66
-11 24 -20 61 -20 82 0 26 -4 37 -15 37 -8 0 -18 12 -21 28 -4 15 -11 33 -17
40 -5 6 -7 12 -4 12 4 0 -9 29 -28 65 -30 56 -35 75 -35 134 l0 69 -35 6 c-19
4 -35 12 -36 19 0 9 -2 9 -5 0 -4 -8 -12 -5 -25 8 -11 11 -27 18 -35 15 -8 -3
-25 1 -37 8 -12 8 -85 36 -162 62 -146 48 -194 70 -310 137 -77 45 -119 82
-110 97 3 6 32 10 63 11 48 0 54 2 35 11 -26 12 -31 38 -8 38 18 0 302 -73
397 -101 71 -22 88 -20 88 11 0 11 4 29 9 42 5 13 33 111 61 218 29 107 69
256 90 330 21 74 52 189 70 255 17 66 40 147 50 180 10 33 30 105 45 160 14
55 44 163 65 240 21 77 78 282 125 455 99 363 167 612 226 825 23 83 44 170
46 195 5 52 -37 234 -68 293 -17 34 -106 143 -368 450 -36 43 -73 86 -81 96
-8 10 -36 43 -61 72 -25 30 -163 191 -305 359 -471 555 -514 609 -514 642 0
15 12 11 69 -29 38 -26 116 -81 174 -121z m4737 109 c0 -6 -10 -17 -22 -25
-27 -19 -48 -5 -28 19 14 16 50 21 50 6z m-203 -88 c5 -13 -32 -27 -47 -18 -8
5 -7 11 1 21 14 17 40 15 46 -3z m-10131 -2015 c-9 -12 -16 -32 -16 -43 0 -21
-9 -22 -207 -38 -115 -10 -278 -24 -363 -33 -221 -22 -361 -34 -390 -35 -14 0
-83 -6 -153 -14 -71 -8 -146 -15 -168 -15 -22 0 -39 -5 -39 -11 0 -7 -11 -9
-29 -6 -16 3 -32 3 -35 0 -9 -10 -195 -15 -451 -14 -121 0 -245 1 -275 0 -42
0 -52 2 -43 12 8 7 51 11 134 10 148 -1 177 3 214 35 21 18 40 24 74 24 43 0
229 18 416 40 87 10 175 18 640 56 171 14 369 31 440 39 72 7 161 13 198 14
l68 1 -15 -22z m83 -167 l-2 -26 -4 25 c-3 14 -10 32 -16 40 -11 13 -10 13 6
1 9 -7 16 -25 16 -40z m-1066 -8 c-7 -2 -19 -2 -25 0 -7 3 -2 5 12 5 14 0 19
-2 13 -5z m-90 -10 c-13 -2 -33 -2 -45 0 -13 2 -3 4 22 4 25 0 35 -2 23 -4z
m-103 -29 c0 -2 -9 -4 -20 -4 -11 0 -20 4 -20 9 0 5 9 7 20 4 11 -3 20 -7 20
-9z m73 -1 c-7 -2 -19 -2 -25 0 -7 3 -2 5 12 5 14 0 19 -2 13 -5z m1184 -35
c-3 -8 -6 -5 -6 6 -1 11 2 17 5 13 3 -3 4 -12 1 -19z m-1777 -38 c0 -5 -18
-10 -40 -10 -22 0 -40 5 -40 10 0 6 18 10 40 10 22 0 40 -4 40 -10z m-130 -20
c0 -5 -6 -13 -14 -17 -8 -4 -16 -19 -19 -33 -3 -16 -5 -10 -6 18 -1 36 2 42
19 42 11 0 20 -4 20 -10z m1897 -32 c-3 -8 -6 -5 -6 6 -1 11 2 17 5 13 3 -3 4
-12 1 -19z m-1847 -23 c0 -8 -7 -15 -15 -15 -16 0 -20 12 -8 23 11 12 23 8 23
-8z m1851 -31 c-5 -16 -10 -21 -10 -12 -1 18 10 51 15 45 2 -1 -1 -16 -5 -33z
m-2004 -126 c-2 -13 -4 -3 -4 22 0 25 2 35 4 23 2 -13 2 -33 0 -45z m70 0 c-2
-13 -4 -3 -4 22 0 25 2 35 4 23 2 -13 2 -33 0 -45z m803 -3 c0 -8 -7 -15 -16
-15 -14 0 -14 3 -4 15 7 8 14 15 16 15 2 0 4 -7 4 -15z m1089 -29 c-9 -8 -10
-7 -5 7 3 10 7 24 7 30 1 7 3 4 6 -7 3 -10 -1 -23 -8 -30z m-32 -8 c-3 -8 -6
-5 -6 6 -1 11 2 17 5 13 3 -3 4 -12 1 -19z m20 -40 c-3 -8 -6 -5 -6 6 -1 11 2
17 5 13 3 -3 4 -12 1 -19z m-17 -44 c0 -8 -5 -12 -10 -9 -6 4 -8 11 -5 16 9
14 15 11 15 -7z m-2072 -66 c-6 -18 -28 -21 -28 -4 0 9 7 16 16 16 9 0 14 -5
12 -12z m52 -53 c0 -8 -7 -15 -15 -15 -16 0 -20 12 -8 23 11 12 23 8 23 -8z
m1937 -52 c-3 -10 -5 -4 -5 12 0 17 2 24 5 18 2 -7 2 -21 0 -30z m30 15 c-3
-8 -6 -5 -6 6 -1 11 2 17 5 13 3 -3 4 -12 1 -19z m-11 -75 c-10 -10 -19 5 -10
18 6 11 8 11 12 0 2 -7 1 -15 -2 -18z m-1876 1 c0 -9 -5 -14 -12 -12 -18 6
-21 28 -4 28 9 0 16 -7 16 -16z m-52 -52 c2 -7 -3 -12 -12 -12 -9 0 -16 7 -16
16 0 17 22 14 28 -4z m212 -82 c0 -5 -18 -10 -40 -10 l-40 0 0 -40 0 -40 -80
0 -80 0 0 40 0 40 80 0 c47 0 80 4 80 10 0 6 18 10 40 10 22 0 40 -4 40 -10z
m1690 -14 c0 -3 -4 -8 -10 -11 -5 -3 -10 -1 -10 4 0 6 5 11 10 11 6 0 10 -2
10 -4z m-59 -151 c5 4 9 1 9 -5 0 -7 -6 -10 -14 -7 -8 3 -17 3 -19 -1 -2 -4
-2 -1 0 6 1 8 4 21 4 30 1 10 4 8 6 -6 2 -12 9 -20 14 -17z m-1711 5 c0 -5 7
-10 16 -10 17 0 14 -22 -4 -28 -7 -2 -12 3 -12 12 0 12 -10 16 -40 16 l-40 0
0 -40 c0 -22 -4 -40 -10 -40 -14 0 -12 68 3 85 14 16 87 20 87 5z m1697 -82
c-3 -7 -5 -2 -5 12 0 14 2 19 5 13 2 -7 2 -19 0 -25z m-1617 7 c0 -8 -7 -15
-15 -15 -16 0 -20 12 -8 23 11 12 23 8 23 -8z m1620 -59 c0 -3 -4 -8 -10 -11
-5 -3 -10 -1 -10 4 0 6 5 11 10 11 6 0 10 -2 10 -4z m-37 -96 c-3 -12 -8 -19
-11 -16 -5 6 5 36 12 36 2 0 2 -9 -1 -20z m-1423 -10 c0 -5 -18 -10 -40 -10
-22 0 -40 5 -40 10 0 6 18 10 40 10 22 0 40 -4 40 -10z m1376 -112 c-19 -27
-21 -19 -4 18 7 14 14 21 16 15 2 -6 -4 -21 -12 -33z m-76 -158 c0 -11 -2 -20
-4 -20 -2 0 -6 9 -9 20 -3 11 -1 20 4 20 5 0 9 -9 9 -20z m26 -6 c-4 -9 -9
-15 -11 -12 -3 3 -3 13 1 22 4 9 9 15 11 12 3 -3 3 -13 -1 -22z m-9 -46 c-3
-8 -6 -5 -6 6 -1 11 2 17 5 13 3 -3 4 -12 1 -19z m-20 -30 c-3 -8 -6 -5 -6 6
-1 11 2 17 5 13 3 -3 4 -12 1 -19z m18 -38 c-4 -12 -9 -19 -12 -17 -3 3 -2 15
2 27 4 12 9 19 12 17 3 -3 2 -15 -2 -27z m-28 -12 c-3 -7 -5 -2 -5 12 0 14 2
19 5 13 2 -7 2 -19 0 -25z m-1637 -48 c0 -22 -4 -40 -10 -40 -5 0 -10 18 -10
40 0 22 5 40 10 40 6 0 10 -18 10 -40z m3480 -113 c-20 -18 -51 -46 -70 -63
-216 -189 -365 -459 -460 -829 -16 -60 -44 -166 -64 -235 -61 -215 -75 -272
-92 -375 -8 -55 -18 -103 -21 -108 -2 -4 -4 -79 -4 -167 1 -149 4 -168 36
-292 21 -78 52 -164 74 -208 22 -41 48 -98 59 -126 l19 -51 -29 2 c-21 2 -40
17 -79 65 -67 84 -89 131 -144 310 -50 162 -44 451 15 718 7 30 13 59 14 65 2
7 13 45 25 86 13 41 23 90 23 108 0 18 4 33 8 33 4 0 10 10 13 23 23 101 107
365 156 489 123 308 340 562 499 587 26 4 49 6 52 3 3 -2 -11 -18 -30 -35z
m-3583 -21 c-11 -27 -27 -17 -27 16 0 30 1 31 16 16 9 -9 14 -24 11 -32z
m-267 -2 c0 -17 -22 -14 -28 4 -2 7 3 12 12 12 9 0 16 -7 16 -16z m1937 -26
c-3 -8 -6 -5 -6 6 -1 11 2 17 5 13 3 -3 4 -12 1 -19z m-1571 -18 c19 0 34 -4
34 -10 0 -5 -25 -10 -55 -10 -51 0 -65 7 -48 24 4 3 13 4 21 1 7 -3 29 -5 48
-5z m1591 -22 c-3 -8 -6 -5 -6 6 -1 11 2 17 5 13 3 -3 4 -12 1 -19z m-12 -58
c3 -5 1 -10 -4 -10 -6 0 -11 5 -11 10 0 6 2 10 4 10 3 0 8 -4 11 -10z m-38
-122 c-3 -8 -6 -5 -6 6 -1 11 2 17 5 13 3 -3 4 -12 1 -19z m-27 -13 c0 -8 -9
-15 -20 -15 -22 0 -27 15 -7 23 21 9 27 7 27 -8z m20 -31 c0 -14 -4 -23 -9
-19 -5 3 -15 -11 -21 -31 -14 -41 -30 -31 -30 19 0 21 5 27 20 27 11 0 23 7
26 15 9 22 14 18 14 -11z m-1660 -24 c0 -5 -18 -10 -40 -10 -22 0 -40 5 -40
10 0 6 18 10 40 10 22 0 40 -4 40 -10z m180 -30 c0 -22 -4 -40 -10 -40 -5 0
-10 18 -10 40 0 22 5 40 10 40 6 0 10 -18 10 -40z m-240 -120 c0 -47 -4 -80
-10 -80 -5 0 -11 -19 -12 -42 l-1 -43 -4 43 c-4 39 -6 42 -34 42 -27 0 -29 -2
-29 -39 0 -22 5 -41 12 -43 6 -2 8 -10 4 -16 -10 -17 -26 -15 -26 3 0 8 -4 15
-10 15 -6 0 -10 33 -10 80 l0 80 50 0 50 0 0 40 c0 22 5 40 10 40 6 0 10 -33
10 -80z m1690 76 c0 -3 -4 -8 -10 -11 -5 -3 -10 -1 -10 4 0 6 5 11 10 11 6 0
10 -2 10 -4z m-1610 -156 c0 -50 4 -80 11 -80 5 0 7 -4 4 -10 -3 -5 -13 -10
-21 -10 -11 0 -14 18 -14 90 0 53 4 90 10 90 6 0 10 -33 10 -80z m-46 -61 c9
-93 8 -99 -14 -99 -22 0 -23 6 -14 99 4 33 10 61 14 61 4 0 10 -28 14 -61z
m1579 -31 c-6 -7 -14 -26 -18 -43 -4 -16 -9 -25 -12 -18 -5 15 25 88 34 80 3
-4 1 -12 -4 -19z m-1793 -4 c0 -17 -22 -14 -28 4 -2 7 3 12 12 12 9 0 16 -7
16 -16z m400 0 c0 -9 -5 -14 -12 -12 -18 6 -21 28 -4 28 9 0 16 -7 16 -16z
m-70 -31 c24 -21 26 -33 5 -33 -8 0 -15 5 -15 10 0 6 -7 10 -15 10 -8 0 -15 7
-15 15 0 20 15 19 40 -2z m-382 -21 c2 -7 -3 -12 -12 -12 -9 0 -16 7 -16 16 0
17 22 14 28 -4z m212 -37 c0 -67 -16 -73 -22 -7 -5 50 -2 62 13 62 5 0 9 -25
9 -55z m12255 -41 c764 -414 1438 -1129 1836 -1949 246 -508 391 -1024 443
-1574 21 -217 21 -626 0 -842 -53 -560 -200 -1080 -446 -1582 -107 -217 -157
-303 -315 -537 -122 -181 -124 -183 -241 -319 l-23 -26 11 25 c6 14 13 33 16
43 4 9 10 17 15 17 5 0 8 10 8 23 -1 12 2 30 5 39 6 12 0 21 -23 32 -19 10
-32 12 -36 6 -9 -15 -45 -12 -51 5 -4 8 -10 15 -16 15 -13 0 -38 26 -38 39 0
6 -4 11 -10 11 -5 0 -12 17 -16 38 -4 20 -11 39 -15 43 -11 6 -51 212 -74 374
-39 274 -72 888 -55 1030 6 50 15 133 21 185 11 104 92 372 154 515 35 80 56
145 51 153 -3 5 1 22 9 38 7 16 17 58 20 94 7 68 7 239 -1 251 -2 4 -6 24 -9
45 -6 37 -27 113 -44 159 -25 66 -84 245 -90 275 -5 19 -16 54 -25 76 -9 23
-18 52 -20 65 -1 13 -7 33 -13 44 -5 11 -15 46 -22 78 -7 31 -16 57 -21 57 -4
0 -11 26 -15 57 -4 32 -16 85 -26 118 -10 33 -19 69 -19 80 0 11 -7 45 -15 75
-22 83 -54 445 -54 615 0 83 0 173 -1 202 -1 28 4 70 10 93 11 42 17 96 24
231 3 42 12 103 22 135 29 101 19 418 -16 483 -5 9 -32 63 -59 119 -28 57 -64
120 -79 140 -16 21 -31 42 -33 47 -7 19 -74 104 -81 105 -4 0 -27 21 -50 48
-59 65 -165 172 -172 172 -3 0 -29 21 -57 48 -27 26 -68 59 -89 73 -21 14 -46
33 -55 42 -9 10 -22 17 -29 17 -6 0 -18 9 -26 20 -8 11 -17 20 -21 20 -4 0
-49 28 -100 62 -110 73 -142 93 -186 113 -18 9 -33 20 -33 26 0 5 19 -1 43
-14 23 -13 83 -46 132 -73z m-12575 26 c0 -33 3 -40 20 -40 39 0 60 -35 60
-100 l0 -60 40 0 c22 0 40 -4 40 -10 0 -15 -70 -12 -86 4 -8 8 -14 31 -14 50
0 20 -4 36 -10 36 -17 0 -50 39 -50 60 0 11 -4 20 -10 20 -5 0 -10 18 -10 40
0 22 5 40 10 40 6 0 10 -18 10 -40z m1927 -17 c-3 -10 -5 -2 -5 17 0 19 2 27
5 18 2 -10 2 -26 0 -35z m-1767 -13 c0 -5 -18 -10 -40 -10 -22 0 -40 5 -40 10
0 6 18 10 40 10 22 0 40 -4 40 -10z m1760 -34 c0 -3 -4 -8 -10 -11 -5 -3 -10
-1 -10 4 0 6 5 11 10 11 6 0 10 -2 10 -4z m-28 -58 c-8 -8 -9 -4 -5 13 4 13 8
18 11 10 2 -7 -1 -18 -6 -23z m-1015 -4 c-3 -3 -12 -4 -19 -1 -8 3 -5 6 6 6
11 1 17 -2 13 -5z m979 -18 c-3 -13 -2 -35 3 -48 9 -21 10 -20 12 12 1 26 3
29 6 12 3 -13 -2 -38 -10 -55 -8 -18 -16 -38 -18 -44 -2 -7 -3 19 -3 57 2 85
2 90 10 90 3 0 3 -11 0 -24z m-1026 -16 c0 -5 -7 -10 -15 -10 -8 0 -15 5 -15
10 0 6 7 10 15 10 8 0 15 -4 15 -10z m47 -36 c-3 -3 -12 -4 -19 -1 -8 3 -5 6
6 6 11 1 17 -2 13 -5z m-477 -14 c0 -5 -18 -10 -40 -10 -22 0 -40 5 -40 10 0
6 18 10 40 10 22 0 40 -4 40 -10z m8225 -60 c3 -5 -1 -10 -9 -10 -9 0 -16 5
-16 10 0 6 4 10 9 10 6 0 13 -4 16 -10z m-8597 -22 c-6 -18 -28 -21 -28 -4 0
9 7 16 16 16 9 0 14 -5 12 -12z m312 -68 c0 -47 -4 -80 -10 -80 -6 0 -10 33
-10 80 0 47 4 80 10 80 6 0 10 -33 10 -80z m-260 15 c0 -8 -7 -15 -15 -15 -16
0 -20 12 -8 23 11 12 23 8 23 -8z m1687 -37 c-3 -8 -6 -5 -6 6 -1 11 2 17 5
13 3 -3 4 -12 1 -19z m33 -8 c0 -5 -5 -10 -11 -10 -5 0 -7 5 -4 10 3 6 8 10
11 10 2 0 4 -4 4 -10z m11 -48 c-6 -2 -11 -11 -11 -19 0 -9 -3 -14 -6 -10 -3
3 0 20 7 37 11 23 15 26 18 13 2 -9 -2 -19 -8 -21z m-29 -94 c-7 -30 -9 -31
-14 -10 -3 12 -2 22 3 22 5 0 9 10 10 23 0 12 3 17 5 10 3 -6 1 -26 -4 -45z
m-1602 -108 c0 -22 -4 -40 -10 -40 -5 0 -10 18 -10 40 0 22 5 40 10 40 6 0 10
-18 10 -40z m248 28 c-6 -18 -28 -21 -28 -4 0 9 7 16 16 16 9 0 14 -5 12 -12z
m52 -53 c0 -8 -7 -15 -15 -15 -16 0 -20 12 -8 23 11 12 23 8 23 -8z m1222
-100 c0 -20 -3 -39 -6 -42 -3 -4 -6 15 -6 42 0 27 3 46 6 42 3 -3 6 -22 6 -42z
m-1622 -65 c0 -5 -18 -10 -40 -10 -22 0 -40 5 -40 10 0 6 18 10 40 10 22 0 40
-4 40 -10z m1610 -80 c0 -5 -4 -10 -10 -10 -5 0 -10 5 -10 10 0 6 5 10 10 10
6 0 10 -4 10 -10z m-40 -97 c-11 -17 -11 -17 -6 0 3 10 6 24 7 30 0 9 2 9 5 0
3 -7 0 -20 -6 -30z m-1990 -33 c0 -33 -3 -40 -20 -40 -17 0 -20 7 -20 40 0 33
3 40 20 40 17 0 20 -7 20 -40z m1957 18 c-3 -8 -6 -5 -6 6 -1 11 2 17 5 13 3
-3 4 -12 1 -19z m-1857 -83 c0 -22 -4 -25 -40 -25 -36 0 -40 3 -40 25 0 23 4
25 40 25 36 0 40 -2 40 -25z m102 -15 c0 -22 1 -45 2 -52 1 -6 -5 -13 -11 -15
-10 -4 -13 11 -13 51 0 63 19 78 22 16z m1738 25 c0 -8 -4 -15 -10 -15 -5 0
-10 7 -10 15 0 8 5 15 10 15 6 0 10 -7 10 -15z m-60 -75 c0 -5 -4 -10 -10 -10
-5 0 -10 5 -10 10 0 6 5 10 10 10 6 0 10 -4 10 -10z m-1622 -97 c-1 -47 -2
-51 -5 -18 -3 22 -9 43 -15 46 -12 7 -2 29 13 29 5 0 8 -26 7 -57z m-71 -35
c-2 -13 -4 -3 -4 22 0 25 2 35 4 23 2 -13 2 -33 0 -45z m1720 40 c-3 -8 -6 -5
-6 6 -1 11 2 17 5 13 3 -3 4 -12 1 -19z m-10 -70 c-3 -8 -6 -5 -6 6 -1 11 2
17 5 13 3 -3 4 -12 1 -19z m-20 -50 c-3 -8 -6 -5 -6 6 -1 11 2 17 5 13 3 -3 4
-12 1 -19z m-1857 -34 c0 -9 -5 -14 -12 -12 -18 6 -21 28 -4 28 9 0 16 -7 16
-16z m-52 -52 c2 -7 -3 -12 -12 -12 -9 0 -16 7 -16 16 0 17 22 14 28 -4z
m-12189 -21 c-7 -10 -37 -30 -68 -44 -31 -14 -100 -46 -154 -71 -102 -48 -132
-57 -107 -32 18 18 310 165 328 166 9 0 10 -4 1 -19z m12051 -31 c0 -22 -4
-40 -10 -40 -5 0 -10 18 -10 40 0 22 5 40 10 40 6 0 10 -18 10 -40z m2027 18
c-3 -8 -6 -5 -6 6 -1 11 2 17 5 13 3 -3 4 -12 1 -19z m-14247 -118 c0 -5 -18
-19 -40 -30 -22 -11 -40 -25 -40 -30 0 -5 -27 -23 -60 -40 -64 -32 -87 -38
-56 -15 32 24 10 17 -64 -20 -67 -34 -100 -43 -100 -27 0 10 321 172 343 172
9 0 17 -4 17 -10z m14203 -27 c-7 -2 -13 -14 -13 -26 0 -18 -2 -19 -10 -7 -10
16 5 41 24 39 7 0 6 -2 -1 -6z m-1205 -61 c2 -7 -3 -12 -12 -12 -9 0 -16 7
-16 16 0 17 22 14 28 -4z m-588 -12 c0 -17 -7 -20 -40 -20 -33 0 -40 3 -40 20
0 17 7 20 40 20 33 0 40 -3 40 -20z m1774 -5 c-4 -8 -8 -15 -10 -15 -2 0 -4 7
-4 15 0 8 4 15 10 15 5 0 7 -7 4 -15z m-14409 -35 c-3 -5 -12 -10 -18 -10 -7
0 -6 4 3 10 19 12 23 12 15 0z m55 -19 c0 -28 -105 -114 -155 -127 -60 -16
-61 -16 -40 0 55 42 55 45 0 18 -144 -70 -184 -85 -170 -62 8 13 334 179 353
179 6 1 12 -3 12 -8z m14300 -45 c0 -3 -4 -8 -10 -11 -5 -3 -10 -1 -10 4 0 6
5 11 10 11 6 0 10 -2 10 -4z m23 -33 c-4 -10 -13 -25 -22 -33 -13 -13 -13 -13
-8 0 4 8 10 23 13 33 4 9 10 17 15 17 5 0 5 -8 2 -17z m-1983 -63 c0 -22 -4
-40 -10 -40 -5 0 -10 18 -10 40 0 22 5 40 10 40 6 0 10 -18 10 -40z m-12490
-50 c0 -26 -51 -88 -76 -94 -19 -5 -24 -10 -16 -15 8 -5 -19 -23 -74 -50 -48
-23 -89 -40 -91 -37 -2 2 30 21 72 41 42 21 74 40 71 42 -2 2 -17 -2 -33 -11
-17 -8 -35 -11 -43 -6 -9 6 -5 12 19 24 17 9 31 18 31 21 0 2 -46 -18 -102
-45 -103 -50 -133 -59 -126 -40 3 11 335 178 356 179 6 1 12 -4 12 -9z m12270
-110 c0 -22 -4 -40 -10 -40 -5 0 -10 18 -10 40 0 22 5 40 10 40 6 0 10 -18 10
-40z m-160 -80 c0 -22 -4 -40 -10 -40 -5 0 -10 18 -10 40 0 22 5 40 10 40 6 0
10 -18 10 -40z m270 0 c0 -22 -4 -40 -10 -40 -5 0 -10 18 -10 40 0 22 5 40 10
40 6 0 10 -18 10 -40z m-12510 -27 c0 -28 -36 -75 -67 -90 -20 -9 -21 -11 -5
-7 14 3 22 1 22 -8 0 -15 -227 -125 -237 -114 -9 8 -9 8 95 60 97 48 125 69
46 35 -25 -12 -48 -18 -52 -15 -10 11 21 35 99 76 125 67 69 44 -102 -40 -158
-78 -211 -98 -178 -65 14 14 357 185 372 185 4 0 7 -8 7 -17z m14491 -16 c-10
-9 -11 -8 -5 6 3 10 9 15 12 12 3 -3 0 -11 -7 -18z m-24 -59 c-3 -8 -6 -5 -6
6 -1 11 2 17 5 13 3 -3 4 -12 1 -19z m-2227 -58 c0 -22 -4 -40 -10 -40 -5 0
-10 18 -10 40 0 22 5 40 10 40 6 0 10 -18 10 -40z m-46 4 c11 -29 6 -44 -14
-44 -11 0 -20 6 -20 14 0 21 11 46 20 46 4 0 11 -7 14 -16z m426 -60 c0 -14
-3 -14 -15 -4 -8 7 -15 14 -15 16 0 2 7 4 15 4 8 0 15 -7 15 -16z m-12751
-124 c-21 -56 -34 -78 -40 -69 -6 11 -9 10 -15 -4 -3 -9 -10 -14 -15 -12 -4 3
-28 -3 -51 -13 -24 -10 -62 -27 -86 -37 -43 -18 -70 -13 -41 8 9 7 64 35 122
62 113 53 150 83 44 36 -72 -32 -124 -49 -94 -31 9 6 15 15 13 19 -3 4 31 27
74 50 44 23 80 44 80 47 0 2 -35 -13 -77 -35 -154 -77 -274 -131 -291 -131
-37 0 28 41 213 133 218 109 216 110 164 -23z m14568 68 c-3 -8 -6 -5 -6 6 -1
11 2 17 5 13 3 -3 4 -12 1 -19z m-2217 -98 c0 -5 -18 -10 -40 -10 -22 0 -40 5
-40 10 0 6 18 10 40 10 22 0 40 -4 40 -10z m240 -6 c0 -9 -5 -14 -12 -12 -18
6 -21 28 -4 28 9 0 16 -7 16 -16z m-52 -52 c2 -7 -3 -12 -12 -12 -9 0 -16 7
-16 16 0 17 22 14 28 -4z m-12578 -18 c0 -8 -14 -69 -30 -137 -89 -358 -117
-784 -80 -1202 7 -84 7 -112 -3 -121 -6 -6 -72 -46 -145 -90 -74 -43 -150 -89
-170 -102 -20 -12 -46 -26 -57 -31 -40 -17 -43 -31 -29 -126 21 -138 12 -145
-14 -10 -47 240 -56 354 -56 660 -1 360 21 535 105 826 38 136 87 262 74 192
-4 -18 -5 -33 -3 -33 7 0 343 172 351 180 14 13 57 8 57 -6z m12390 -4 c0 -5
-18 -10 -40 -10 -22 0 -40 5 -40 10 0 6 18 10 40 10 22 0 40 -4 40 -10z m2060
-70 c0 -5 -2 -10 -4 -10 -3 0 -8 5 -11 10 -3 6 -1 10 4 10 6 0 11 -4 11 -10z
m-2380 -40 l0 -40 -40 0 -40 0 0 40 0 40 40 0 40 0 0 -40z m160 16 c0 -13 7
-26 15 -30 30 -11 14 -26 -30 -26 l-45 0 0 -40 c0 -22 -4 -40 -10 -40 -5 0
-10 18 -10 40 0 22 5 40 10 40 6 0 10 18 10 40 0 38 2 40 30 40 25 0 30 -4 30
-24z m160 14 c0 -5 -18 -11 -40 -11 -22 -1 -45 -2 -52 -3 -6 -1 -13 5 -15 12
-4 9 11 12 51 12 31 0 56 -4 56 -10z m1867 -76 c-3 -3 -12 -4 -19 -1 -8 3 -5
6 6 6 11 1 17 -2 13 -5z m17 -33 c-10 -11 -21 -18 -26 -15 -5 3 2 14 14 24 29
23 35 18 12 -9z m-19 -50 c-6 -5 -25 10 -25 20 0 5 6 4 14 -3 8 -7 12 -15 11
-17z m-70 -11 c3 -5 1 -10 -4 -10 -6 0 -11 5 -11 10 0 6 2 10 4 10 3 0 8 -4
11 -10z m-2355 -90 c0 -28 2 -30 40 -30 22 0 40 -4 40 -10 0 -5 -22 -10 -50
-10 l-50 0 0 40 c0 22 5 40 10 40 6 0 10 -13 10 -30z m180 -10 c0 -22 -4 -40
-10 -40 -5 0 -10 -18 -10 -40 0 -22 -4 -40 -10 -40 -5 0 -10 18 -10 40 0 22 5
40 10 40 6 0 10 18 10 40 0 22 5 40 10 40 6 0 10 -18 10 -40z m1995 30 c-26
-11 -35 -12 -35 -2 0 4 12 8 28 9 23 1 24 1 7 -7z m-68 -16 c-3 -3 -12 -4 -19
-1 -8 3 -5 6 6 6 11 1 17 -2 13 -5z m13 -34 c0 -5 -2 -10 -4 -10 -3 0 -8 5
-11 10 -3 6 -1 10 4 10 6 0 11 -4 11 -10z m-43 -36 c-16 -9 -52 -17 -80 -19
-36 -3 -46 -1 -32 5 11 5 37 9 57 9 20 1 40 6 43 11 3 6 14 10 23 10 11 -1 7
-6 -11 -16z m-271 -92 c-9 -9 -37 8 -31 18 5 8 11 7 21 -1 8 -6 12 -14 10 -17z
m4 -32 c-8 -5 -19 -10 -25 -10 -5 0 -3 5 5 10 8 5 20 10 25 10 6 0 3 -5 -5
-10z m-125 -29 c3 -5 2 -12 -3 -15 -5 -3 -9 1 -9 9 0 17 3 19 12 6z m35 -15
c0 -2 -7 -7 -16 -10 -8 -3 -12 -2 -9 4 6 10 25 14 25 6z m-95 -36 c3 -5 2 -10
-4 -10 -5 0 -13 5 -16 10 -3 6 -2 10 4 10 5 0 13 -4 16 -10z m-1385 -60 c0
-22 -4 -40 -10 -40 -5 0 -10 18 -10 40 0 22 5 40 10 40 6 0 10 -18 10 -40z
m1305 20 c3 -6 -1 -7 -9 -4 -18 7 -21 14 -7 14 6 0 13 -4 16 -10z m-10900 -57
c-19 -15 -18 -15 19 -10 22 4 35 3 30 -2 -16 -14 -130 -41 -202 -47 l-69 -7
-21 36 -21 36 62 4 c34 2 98 4 142 5 75 1 79 0 60 -15z m9201 -79 c-3 -8 -13
-13 -23 -13 -17 1 -17 2 0 6 12 3 17 16 19 46 1 39 2 39 5 9 3 -19 2 -40 -1
-48z m94 36 c0 -29 -4 -40 -15 -40 -11 0 -15 11 -15 40 0 29 4 40 15 40 11 0
15 -11 15 -40z m1440 26 c-7 -7 -13 -7 -20 0 -6 6 -3 10 10 10 13 0 16 -4 10
-10z m-1623 -18 c-3 -8 -6 -5 -6 6 -1 11 2 17 5 13 3 -3 4 -12 1 -19z m1566
15 c-7 -2 -21 -2 -30 0 -10 3 -4 5 12 5 17 0 24 -2 18 -5z m-923 -48 c0 -8 -7
-15 -15 -15 -16 0 -20 12 -8 23 11 12 23 8 23 -8z m785 -25 c3 -5 1 -10 -4
-10 -6 0 -11 5 -11 10 0 6 2 10 4 10 3 0 8 -4 11 -10z m8112 -32 c-4 -24 -15
-70 -26 -103 -10 -33 -36 -113 -56 -177 -21 -65 -42 -118 -46 -118 -5 0 -9 5
-9 11 0 11 -63 4 -85 -9 -21 -14 -33 -9 -50 22 -10 17 -24 35 -32 39 -9 6 -13
34 -13 98 0 88 1 92 29 117 21 20 248 145 290 161 2 0 1 -18 -2 -41z m-8144
25 c-7 -2 -19 -2 -25 0 -7 3 -2 5 12 5 14 0 19 -2 13 -5z m52 -13 c-3 -5 -12
-10 -18 -10 -7 0 -6 4 3 10 19 12 23 12 15 0z m-1288 -60 l0 -30 -22 20 c-12
11 -29 20 -38 20 -9 0 -17 5 -17 10 0 6 17 10 38 10 36 0 39 -2 39 -30z m1183
20 c0 -5 -9 -10 -20 -10 -11 0 -20 5 -20 10 0 6 9 10 20 10 11 0 20 -4 20 -10z
m-1130 -50 c0 -22 -4 -40 -10 -40 -5 0 -10 18 -10 40 0 22 5 40 10 40 6 0 10
-18 10 -40z m750 -50 c0 -5 -4 -10 -10 -10 -5 0 -10 -5 -10 -11 0 -8 12 -10
34 -6 28 4 34 3 29 -9 -5 -12 -10 -15 -28 -14 -3 1 -13 -6 -21 -15 -9 -8 -19
-13 -24 -10 -5 3 -11 1 -15 -5 -3 -5 -13 -10 -21 -10 -10 0 -14 13 -14 50 l0
50 40 0 c22 0 40 -4 40 -10z m150 3 c-14 -3 -31 -10 -37 -15 -10 -8 -13 -6
-13 6 0 12 9 16 38 15 27 -1 30 -3 12 -6z m-56 -38 c3 -8 1 -15 -4 -15 -6 0
-10 7 -10 15 0 8 2 15 4 15 2 0 6 -7 10 -15z m-827 -41 c-3 -3 -12 -4 -19 -1
-8 3 -5 6 6 6 11 1 17 -2 13 -5z m63 -34 c0 -22 -4 -40 -10 -40 -5 0 -10 18
-10 40 0 22 5 40 10 40 6 0 10 -18 10 -40z m530 20 c0 -5 -4 -10 -10 -10 -5 0
-10 5 -10 10 0 6 5 10 10 10 6 0 10 -4 10 -10z m-590 -15 c5 3 10 2 10 -3 0
-15 -26 -22 -39 -9 -16 16 -13 31 4 17 8 -6 19 -9 25 -5z m713 8 c-7 -2 -19
-2 -25 0 -7 3 -2 5 12 5 14 0 19 -2 13 -5z m-48 -13 c-3 -5 -12 -10 -18 -10
-7 0 -6 4 3 10 19 12 23 12 15 0z m-208 -46 c-3 -3 -12 -4 -19 -1 -8 3 -5 6 6
6 11 1 17 -2 13 -5z m78 -4 c-16 -4 -22 -8 -12 -9 21 -1 23 -21 2 -21 -9 0
-28 -7 -43 -16 -24 -15 -25 -15 -8 0 11 9 17 18 14 22 -11 11 -63 -21 -62 -38
1 -11 -6 -15 -24 -13 -14 1 -38 -6 -52 -17 -19 -14 -38 -18 -66 -15 l-39 4 43
1 c41 2 42 3 42 37 0 32 3 35 29 35 16 0 31 -5 33 -11 2 -7 22 -1 51 14 26 14
41 28 34 30 -6 3 11 5 38 5 43 0 46 -1 20 -8z m-475 -10 c0 -5 -4 -10 -10 -10
-5 0 -10 5 -10 10 0 6 5 10 10 10 6 0 10 -4 10 -10z m237 -76 c-3 -3 -12 -4
-19 -1 -8 3 -5 6 6 6 11 1 17 -2 13 -5z m7239 -192 c-7 -58 -171 -664 -383
-1422 -19 -69 -43 -156 -53 -195 -27 -101 -47 -152 -71 -186 -23 -32 -41 -34
-45 -5 -1 10 -13 25 -26 34 -13 8 -45 38 -71 66 -46 49 -48 53 -44 101 2 28
16 93 30 145 15 52 33 120 41 150 27 112 39 156 47 175 5 11 15 47 23 80 8 33
21 85 30 115 9 30 38 141 66 245 42 162 103 386 114 420 2 6 9 31 16 57 9 36
26 61 66 100 30 29 68 60 86 69 89 46 127 67 149 82 13 10 25 17 28 17 2 0 1
-22 -3 -48z m-16872 -87 l6 -30 -15 25 c-8 14 -14 36 -14 50 0 23 1 23 8 5 4
-11 11 -33 15 -50z m-2576 -62 c-1 -5 4 -40 12 -80 7 -39 10 -78 7 -85 -3 -8
-74 -56 -159 -105 -173 -102 -237 -135 -249 -127 -5 3 -10 -5 -10 -18 -1 -18
-2 -19 -6 -4 -3 10 0 23 6 29 6 6 11 20 11 32 0 15 19 29 85 59 47 21 83 41
80 44 -8 8 30 32 130 83 82 42 90 49 93 78 2 19 -2 33 -10 36 -7 3 -51 -11
-98 -30 -66 -27 -79 -31 -60 -15 24 21 24 21 3 15 -44 -12 -22 5 57 45 44 22
80 37 80 33 0 -4 5 -2 12 5 14 14 19 15 16 5z m-34 -364 c-79 -38 -107 -48
-88 -30 19 19 149 79 158 74 5 -4 -26 -23 -70 -44z m96 22 c0 -10 -140 -74
-147 -67 -5 5 124 75 140 76 4 0 7 -4 7 -9z m18 -134 c-5 -10 -83 -54 -174
-97 -189 -91 -204 -96 -204 -78 0 7 53 39 118 71 64 31 108 55 97 51 -44 -12
27 31 118 71 20 10 37 25 38 34 1 9 4 5 8 -9 5 -14 4 -33 -1 -43z m42 -156 c0
-5 -6 -12 -12 -15 -7 -3 -3 -3 10 0 39 10 24 -6 -30 -31 -57 -27 -101 -34 -55
-9 15 8 27 17 27 20 0 2 -9 0 -21 -6 -11 -7 -23 -10 -25 -7 -4 4 86 56 99 57
4 0 7 -4 7 -9z m44 -160 c-17 -16 -343 -171 -359 -171 -29 0 27 34 185 113
170 85 221 102 174 58z m124 -288 c-4 -20 -344 -181 -356 -168 -4 4 -2 10 3
12 6 3 84 42 175 87 91 45 169 83 173 84 5 1 7 -6 5 -15z m20430 -129 c4 2 6
-24 5 -57 -1 -34 -2 -89 -2 -122 1 -33 1 -78 0 -100 0 -64 -20 -221 -41 -331
-11 -56 -20 -111 -20 -122 0 -12 -5 -22 -11 -22 -6 0 -9 -7 -5 -15 3 -8 2 -15
-3 -15 -4 0 -8 -23 -9 -51 0 -32 -9 -65 -25 -92 -41 -73 -45 -81 -62 -122 -10
-22 -24 -48 -32 -57 -9 -10 -13 -24 -10 -31 3 -8 -7 -28 -21 -45 -15 -17 -35
-42 -45 -56 -10 -14 -25 -26 -33 -26 -8 0 -25 -7 -38 -15 -34 -23 -219 -14
-247 11 -11 9 -22 15 -25 11 -3 -3 -14 3 -25 14 -10 10 -25 16 -34 13 -14 -6
-13 -8 2 -21 10 -8 12 -12 6 -8 -19 9 -16 -20 3 -36 16 -13 24 -29 39 -79 6
-20 1 -17 -24 15 -18 22 -46 58 -64 79 -42 53 -109 148 -105 151 11 10 125 55
253 101 165 60 236 102 281 167 42 60 45 67 129 366 41 149 91 323 110 386 19
63 35 118 36 122 0 5 3 2 6 -5 2 -6 8 -10 11 -8z m-15612 -81 c-25 -261 -99
-534 -211 -783 -120 -269 -287 -501 -479 -670 -50 -43 -14 8 44 65 29 28 89
97 134 155 247 317 422 739 492 1188 10 61 20 112 22 112 2 0 1 -30 -2 -67z
m-4676 -84 c0 -5 -35 -26 -77 -46 -312 -142 -356 -152 -101 -22 154 79 178 88
178 68z m3443 -391 c43 -84 77 -162 77 -173 -1 -29 -48 51 -94 160 -21 50 -47
107 -57 128 -11 20 -16 37 -12 37 5 0 43 -69 86 -152z m-3283 114 c0 -8 -191
-94 -197 -88 -3 3 178 94 190 95 4 1 7 -3 7 -7z m19524 -968 c3 -8 2 -12 -4
-9 -6 3 -10 10 -10 16 0 14 7 11 14 -7z m7121 -124 c-3 -5 -11 -10 -16 -10 -6
0 -7 5 -4 10 3 6 11 10 16 10 6 0 7 -4 4 -10z m-15018 -1436 c-3 -4 11 -29 32
-58 21 -28 75 -103 121 -166 45 -63 86 -117 90 -120 3 -3 6 -42 6 -86 -1 -75
-2 -81 -19 -73 -9 6 -56 63 -104 127 -47 64 -103 140 -123 167 -89 120 -120
165 -120 173 0 5 24 16 53 25 59 17 73 20 64 11z"/>
<path d="M32931 21634 c0 -11 3 -14 6 -6 3 7 2 16 -1 19 -3 4 -6 -2 -5 -13z"/>
<path d="M25295 21740 c-3 -5 1 -10 9 -10 8 0 18 5 21 10 3 6 -1 10 -9 10 -8
0 -18 -4 -21 -10z"/>
<path d="M25336 21724 c-12 -32 -7 -84 9 -84 11 0 15 12 15 50 0 49 -12 66
-24 34z"/>
<path d="M25330 21316 c0 -2 7 -9 15 -16 12 -10 15 -10 15 4 0 9 -7 16 -15 16
-8 0 -15 -2 -15 -4z"/>
<path d="M25257 20383 c-12 -11 -8 -23 8 -23 8 0 15 7 15 15 0 16 -12 20 -23
8z"/>
<path d="M24780 17735 c-10 -12 -10 -15 4 -15 9 0 16 7 16 15 0 8 -2 15 -4 15
-2 0 -9 -7 -16 -15z"/>
<path d="M24532 16588 c6 -18 28 -21 28 -4 0 9 -7 16 -16 16 -9 0 -14 -5 -12
-12z"/>
<path d="M22615 16250 c-3 -5 -2 -10 4 -10 5 0 13 5 16 10 3 6 2 10 -4 10 -5
0 -13 -4 -16 -10z"/>
<path d="M22580 16215 c0 -8 5 -15 10 -15 6 0 10 7 10 15 0 8 -4 15 -10 15 -5
0 -10 -7 -10 -15z"/>
<path d="M22740 16209 c0 -5 5 -7 10 -4 6 3 10 8 10 11 0 2 -4 4 -10 4 -5 0
-10 -5 -10 -11z"/>
<path d="M23455 15730 c3 -5 8 -10 11 -10 2 0 4 5 4 10 0 6 -5 10 -11 10 -5 0
-7 -4 -4 -10z"/>
<path d="M23550 15670 c0 -5 7 -10 16 -10 8 0 12 5 9 10 -3 6 -10 10 -16 10
-5 0 -9 -4 -9 -10z"/>
<path d="M22355 15491 c-3 -5 -1 -12 5 -16 5 -3 10 1 10 9 0 18 -6 21 -15 7z"/>
<path d="M23848 15483 c7 -3 16 -2 19 1 4 3 -2 6 -13 5 -11 0 -14 -3 -6 -6z"/>
<path d="M23920 15430 c0 -11 4 -20 9 -20 5 0 7 9 4 20 -3 11 -7 20 -9 20 -2
0 -4 -9 -4 -20z"/>
<path d="M23950 15410 c0 -5 5 -10 10 -10 6 0 10 5 10 10 0 6 -4 10 -10 10 -5
0 -10 -4 -10 -10z"/>
<path d="M22302 15240 c0 -14 2 -19 5 -12 2 6 2 18 0 25 -3 6 -5 1 -5 -13z"/>
<path d="M24190 15250 c0 -5 9 -10 20 -10 11 0 20 5 20 10 0 6 -9 10 -20 10
-11 0 -20 -4 -20 -10z"/>
<path d="M23940 15200 c0 -33 3 -40 20 -40 17 0 20 7 20 40 0 33 -3 40 -20 40
-17 0 -20 -7 -20 -40z"/>
<path d="M22281 15184 c0 -11 3 -14 6 -6 3 7 2 16 -1 19 -3 4 -6 -2 -5 -13z"/>
<path d="M24000 15165 c0 -34 1 -35 40 -35 39 0 40 1 40 35 0 34 -1 35 -40 35
-39 0 -40 -1 -40 -35z"/>
<path d="M24240 15120 c0 -22 5 -40 10 -40 6 0 10 18 10 40 0 22 -4 40 -10 40
-5 0 -10 -18 -10 -40z"/>
<path d="M24300 15120 c0 -22 5 -40 10 -40 6 0 10 18 10 40 0 22 -4 40 -10 40
-5 0 -10 -18 -10 -40z"/>
<path d="M24132 15068 c6 -18 28 -21 28 -4 0 9 -7 16 -16 16 -9 0 -14 -5 -12
-12z"/>
<path d="M24080 15016 c0 -9 7 -16 16 -16 17 0 14 22 -4 28 -7 2 -12 -3 -12
-12z"/>
<path d="M24320 14904 c0 -72 3 -95 13 -92 7 3 13 26 15 56 2 37 7 52 18 52
10 0 14 12 14 40 0 38 -2 40 -30 40 l-30 0 0 -96z"/>
<path d="M24240 14770 c0 -11 7 -23 15 -26 20 -8 19 -34 -2 -50 -17 -12 -16
-13 5 -14 13 0 33 9 45 21 21 19 21 21 5 33 -22 16 -23 26 -3 26 8 0 15 7 15
15 0 11 -11 15 -40 15 -34 0 -40 -3 -40 -20z"/>
<path d="M24374 14775 c-4 -8 -12 -15 -20 -15 -10 0 -14 -12 -14 -40 0 -33 3
-40 20 -40 17 0 20 7 20 40 0 22 5 40 10 40 6 0 10 7 10 15 0 8 -5 15 -10 15
-6 0 -13 -7 -16 -15z"/>
<path d="M22101 14584 c0 -11 3 -14 6 -6 3 7 2 16 -1 19 -3 4 -6 -2 -5 -13z"/>
<path d="M24212 14588 c6 -18 28 -21 28 -4 0 9 -7 16 -16 16 -9 0 -14 -5 -12
-12z"/>
<path d="M22126 14553 c-6 -14 -5 -15 5 -6 7 7 10 15 7 18 -3 3 -9 -2 -12 -12z"/>
<path d="M24160 14536 c0 -9 7 -16 16 -16 9 0 14 5 12 12 -6 18 -28 21 -28 4z"/>
<path d="M24240 14480 l0 -40 40 0 40 0 0 40 0 40 -40 0 -40 0 0 -40z"/>
<path d="M24100 14423 c0 -10 5 -25 10 -33 9 -13 11 -13 20 0 17 25 12 50 -10
50 -12 0 -20 -7 -20 -17z"/>
<path d="M24240 14135 c0 -11 11 -15 40 -15 29 0 40 4 40 15 0 11 -11 15 -40
15 -29 0 -40 -4 -40 -15z"/>
<path d="M24374 14135 c-4 -8 -12 -15 -20 -15 -10 0 -14 -12 -14 -40 0 -22 -4
-40 -10 -40 -5 0 -10 -18 -10 -40 0 -22 5 -40 10 -40 6 0 10 18 10 40 0 33 3
40 20 40 17 0 20 7 20 40 0 22 5 40 10 40 6 0 10 7 10 15 0 8 -5 15 -10 15 -6
0 -13 -7 -16 -15z"/>
<path d="M23972 14028 c6 -18 28 -21 28 -4 0 9 -7 16 -16 16 -9 0 -14 -5 -12
-12z"/>
<path d="M24080 14024 c0 -17 22 -14 28 4 2 7 -3 12 -12 12 -9 0 -16 -7 -16
-16z"/>
<path d="M23920 13976 c0 -9 7 -16 16 -16 17 0 14 22 -4 28 -7 2 -12 -3 -12
-12z"/>
<path d="M24137 13983 c-12 -11 -8 -23 8 -23 8 0 15 7 15 15 0 16 -12 20 -23
8z"/>
<path d="M24050 13840 c0 -29 4 -40 15 -40 11 0 15 11 15 40 0 29 -4 40 -15
40 -11 0 -15 -11 -15 -40z"/>
<path d="M24160 13800 l0 -80 -40 0 -40 0 0 -40 0 -40 40 0 40 0 0 40 0 40 40
0 40 0 0 80 0 80 -40 0 -40 0 0 -80z"/>
<path d="M24000 13760 c0 -29 4 -40 15 -40 11 0 15 11 15 40 0 29 -4 40 -15
40 -11 0 -15 -11 -15 -40z"/>
<path d="M24020 13600 c0 -33 3 -40 20 -40 17 0 20 7 20 40 0 33 -3 40 -20 40
-17 0 -20 -7 -20 -40z"/>
<path d="M23972 13428 c4 -74 28 -77 28 -4 0 44 -3 56 -16 56 -12 0 -14 -10
-12 -52z"/>
<path d="M24340 13440 c0 -33 3 -40 20 -40 17 0 20 7 20 40 0 33 -3 40 -20 40
-17 0 -20 -7 -20 -40z"/>
<path d="M23920 13336 c0 -9 7 -16 16 -16 17 0 14 22 -4 28 -7 2 -12 -3 -12
-12z"/>
<path d="M23970 13280 l0 -40 45 0 45 0 0 40 0 40 -45 0 -45 0 0 -40z"/>
<path d="M23890 13200 c0 -29 4 -40 15 -40 11 0 15 11 15 40 0 29 -4 40 -15
40 -11 0 -15 -11 -15 -40z"/>
<path d="M23970 13040 c0 -29 4 -40 15 -40 11 0 15 11 15 40 0 29 -4 40 -15
40 -11 0 -15 -11 -15 -40z"/>
<path d="M23280 12935 c0 -8 7 -15 16 -15 14 0 14 3 4 15 -7 8 -14 15 -16 15
-2 0 -4 -7 -4 -15z"/>
<path d="M23840 12815 l0 -55 40 0 40 0 0 55 0 55 -40 0 -40 0 0 -55z"/>
<path d="M23600 12745 c0 -11 11 -15 40 -15 29 0 40 4 40 15 0 11 -11 15 -40
15 -29 0 -40 -4 -40 -15z"/>
<path d="M23810 12640 c0 -29 4 -40 15 -40 9 0 15 9 15 25 0 23 4 25 40 25 29
0 40 4 40 15 0 12 -13 15 -55 15 l-55 0 0 -40z"/>
<path d="M23880 12564 c0 -38 15 -74 30 -74 6 0 10 7 10 15 0 8 5 15 10 15 6
0 10 18 10 40 0 38 -2 40 -30 40 -28 0 -30 -3 -30 -36z"/>
<path d="M23760 12456 c0 -13 12 -16 56 -16 73 0 70 24 -4 28 -42 2 -52 0 -52
-12z"/>
<path d="M23460 12240 c0 -33 3 -40 20 -40 17 0 20 7 20 40 0 33 -3 40 -20 40
-17 0 -20 -7 -20 -40z"/>
<path d="M23600 12264 c0 -17 22 -14 28 4 2 7 -3 12 -12 12 -9 0 -16 -7 -16
-16z"/>
<path d="M23657 12223 c-4 -3 -7 -46 -7 -95 0 -70 3 -88 15 -88 11 0 15 -16
17 -67 l3 -68 26 28 c15 15 36 27 48 27 18 0 21 6 21 40 l0 40 -50 0 -50 0 0
95 c0 87 -5 107 -23 88z"/>
<path d="M22910 12130 c0 -5 5 -10 10 -10 6 0 10 5 10 10 0 6 -4 10 -10 10 -5
0 -10 -4 -10 -10z"/>
<path d="M21425 12120 c-3 -5 -1 -10 4 -10 6 0 11 5 11 10 0 6 -2 10 -4 10 -3
0 -8 -4 -11 -10z"/>
<path d="M23938 12099 c-15 -15 -17 -30 -11 -79 6 -58 7 -60 34 -60 27 0 29 3
29 39 0 22 -6 42 -12 45 -10 3 -8 9 5 19 9 8 17 24 17 36 0 27 -38 27 -62 0z"/>
<path d="M23360 12025 c0 -11 11 -15 40 -15 29 0 40 4 40 15 0 11 -11 15 -40
15 -29 0 -40 -4 -40 -15z"/>
<path d="M23520 12024 c0 -17 22 -14 28 4 2 7 -3 12 -12 12 -9 0 -16 -7 -16
-16z"/>
<path d="M23820 12000 c0 -22 5 -40 10 -40 6 0 10 18 10 40 0 22 -4 40 -10 40
-5 0 -10 -18 -10 -40z"/>
<path d="M23577 11983 c-12 -11 -8 -23 8 -23 8 0 15 7 15 15 0 16 -12 20 -23
8z"/>
<path d="M23280 11735 c0 -12 20 -15 120 -15 100 0 120 3 120 15 0 13 -20 15
-120 15 -100 0 -120 -2 -120 -15z"/>
<path d="M22195 11630 c3 -5 8 -10 11 -10 2 0 4 5 4 10 0 6 -5 10 -11 10 -5 0
-7 -4 -4 -10z"/>
<path d="M23330 11600 c0 -28 4 -40 14 -40 9 0 16 -13 18 -32 l4 -33 9 29 c5
21 5 31 -3 34 -7 2 -12 21 -12 43 0 28 -4 39 -15 39 -11 0 -15 -11 -15 -40z"/>
<path d="M23410 11440 c0 -29 4 -40 15 -40 11 0 15 11 15 40 0 29 -4 40 -15
40 -11 0 -15 -11 -15 -40z"/>
<path d="M23587 11363 c-11 -10 -8 -43 3 -43 6 0 10 11 10 25 0 26 -2 29 -13
18z"/>
<path d="M21241 11334 c0 -11 3 -14 6 -6 3 7 2 16 -1 19 -3 4 -6 -2 -5 -13z"/>
<path d="M23360 11280 c0 -29 -4 -40 -15 -40 -12 0 -15 -16 -15 -80 l0 -80 30
0 c28 0 30 2 30 40 0 29 -4 40 -15 40 -11 0 -15 11 -15 40 l0 40 80 0 80 0 0
40 0 40 -80 0 -80 0 0 -40z"/>
<path d="M22960 11224 c0 -17 22 -14 28 4 2 7 -3 12 -12 12 -9 0 -16 -7 -16
-16z"/>
<path d="M23014 11175 c-4 -8 -17 -15 -30 -15 -15 0 -24 -6 -24 -15 0 -11 11
-15 40 -15 38 0 40 2 40 30 0 31 -16 41 -26 15z"/>
<path d="M23040 11065 c0 -11 11 -15 40 -15 29 0 40 4 40 15 0 11 -11 15 -40
15 -29 0 -40 -4 -40 -15z"/>
<path d="M22929 11028 c-15 -16 -31 -28 -38 -28 -6 0 -11 -17 -11 -40 l0 -40
40 0 c22 0 40 -4 40 -10 0 -5 18 -10 40 -10 38 0 40 2 40 30 0 28 2 30 40 30
33 0 40 3 40 20 0 17 -7 20 -50 20 l-50 0 0 -40 c0 -33 -3 -40 -20 -40 -17 0
-20 7 -20 40 0 22 -4 40 -9 40 -5 0 -11 12 -13 28 l-3 27 -26 -27z"/>
<path d="M23160 10960 c0 -33 3 -40 20 -40 17 0 20 7 20 40 0 33 -3 40 -20 40
-17 0 -20 -7 -20 -40z"/>
<path d="M23210 10880 c0 -33 3 -40 20 -40 17 0 20 7 20 40 0 33 -3 40 -20 40
-17 0 -20 -7 -20 -40z"/>
<path d="M22960 10850 c0 -5 18 -10 40 -10 22 0 40 5 40 10 0 6 -18 10 -40 10
-22 0 -40 -4 -40 -10z"/>
<path d="M21300 10820 c0 -5 5 -10 10 -10 6 0 10 5 10 10 0 6 -4 10 -10 10 -5
0 -10 -4 -10 -10z"/>
<path d="M21405 10730 c3 -5 8 -10 11 -10 2 0 4 5 4 10 0 6 -5 10 -11 10 -5 0
-7 -4 -4 -10z"/>
<path d="M21398 10673 c7 -3 16 -2 19 1 4 3 -2 6 -13 5 -11 0 -14 -3 -6 -6z"/>
<path d="M22898 10579 c-11 -12 -18 -35 -18 -62 0 -39 3 -44 33 -57 17 -7 35
-15 40 -18 4 -2 7 7 7 20 0 17 -9 27 -32 37 -21 8 -28 15 -19 18 24 10 51 42
51 63 0 26 -38 26 -62 -1z"/>
<path d="M21520 10516 c0 -2 7 -9 15 -16 12 -10 15 -10 15 4 0 9 -7 16 -15 16
-8 0 -15 -2 -15 -4z"/>
<path d="M21570 10482 c0 -5 7 -15 15 -22 8 -7 15 -9 15 -6 0 4 -7 14 -15 22
-8 9 -15 11 -15 6z"/>
<path d="M21540 10456 c0 -9 5 -16 10 -16 6 0 10 4 10 9 0 6 -4 13 -10 16 -5
3 -10 -1 -10 -9z"/>
<path d="M22480 10455 c0 -8 -7 -15 -15 -15 -11 0 -15 -11 -15 -40 0 -29 4
-40 15 -40 11 0 15 11 15 40 l0 40 40 0 c29 0 40 4 40 15 0 11 -11 15 -40 15
-29 0 -40 -4 -40 -15z"/>
<path d="M21676 10345 c4 -8 8 -15 10 -15 2 0 4 7 4 15 0 8 -4 15 -10 15 -5 0
-7 -7 -4 -15z"/>
<path d="M22180 10320 c0 -33 3 -40 20 -40 17 0 20 7 20 40 0 33 -3 40 -20 40
-17 0 -20 -7 -20 -40z"/>
<path d="M22560 10320 c0 -29 4 -40 15 -40 11 0 15 11 15 40 0 29 -4 40 -15
40 -11 0 -15 -11 -15 -40z"/>
<path d="M22770 10320 c0 -29 4 -40 15 -40 11 0 15 11 15 40 0 29 -4 40 -15
40 -11 0 -15 -11 -15 -40z"/>
<path d="M21660 10283 c8 -3 19 -11 23 -17 6 -7 7 -6 4 4 -2 8 -12 16 -23 17
-13 2 -15 1 -4 -4z"/>
<path d="M21709 10251 c-11 -12 -14 -23 -8 -32 7 -11 9 -11 9 3 0 9 5 18 12
20 6 2 9 10 7 16 -3 9 -9 6 -20 -7z"/>
<path d="M22061 10217 c-12 -15 -11 -17 3 -17 9 0 16 -7 16 -16 0 -9 5 -14 12
-12 18 6 22 28 5 28 -9 0 -17 7 -19 17 -3 15 -4 15 -17 0z"/>
<path d="M21710 10190 c0 -5 7 -7 15 -4 8 4 15 8 15 10 0 2 -7 4 -15 4 -8 0
-15 -4 -15 -10z"/>
<path d="M22184 10150 c-4 -16 -10 -30 -15 -30 -5 0 -9 -7 -9 -15 0 -11 11
-15 40 -15 29 0 40 4 40 15 0 8 -4 15 -9 15 -5 0 -11 14 -14 30 -4 17 -11 30
-17 30 -6 0 -13 -13 -16 -30z"/>
<path d="M21730 10150 c0 -5 5 -10 10 -10 6 0 10 5 10 10 0 6 -4 10 -10 10 -5
0 -10 -4 -10 -10z"/>
<path d="M22137 10143 c-12 -11 -8 -23 8 -23 8 0 15 7 15 15 0 16 -12 20 -23
8z"/>
<path d="M22400 10095 c0 -22 -4 -25 -40 -25 -29 0 -40 -4 -40 -15 0 -12 16
-15 80 -15 l80 0 0 40 0 40 -40 0 c-36 0 -40 -2 -40 -25z"/>
<path d="M21790 10070 c0 -5 5 -10 11 -10 5 0 7 5 4 10 -3 6 -8 10 -11 10 -2
0 -4 -4 -4 -10z"/>
<path d="M21820 10060 c0 -5 5 -10 10 -10 6 0 10 5 10 10 0 6 -4 10 -10 10 -5
0 -10 -4 -10 -10z"/>
<path d="M21870 10030 c0 -5 7 -7 15 -4 8 4 15 8 15 10 0 2 -7 4 -15 4 -8 0
-15 -4 -15 -10z"/>
<path d="M21840 10005 c0 -8 5 -15 10 -15 6 0 10 7 10 15 0 8 -4 15 -10 15 -5
0 -10 -7 -10 -15z"/>
<path d="M21890 9910 c0 -5 5 -10 11 -10 5 0 7 5 4 10 -3 6 -8 10 -11 10 -2 0
-4 -4 -4 -10z"/>
<path d="M22290 9840 c0 -29 4 -40 15 -40 11 0 15 11 15 40 0 29 -4 40 -15 40
-11 0 -15 -11 -15 -40z"/>
<path d="M21940 9835 c0 -9 9 -15 21 -15 18 0 19 2 9 15 -7 8 -16 15 -21 15
-5 0 -9 -7 -9 -15z"/>
<path d="M22000 9785 c0 -11 11 -15 40 -15 29 0 40 4 40 15 0 11 -11 15 -40
15 -29 0 -40 -4 -40 -15z"/>
<path d="M22140 9764 c0 -25 8 -44 30 -67 37 -39 38 -57 4 -57 -43 0 -22 -25
24 -28 45 -3 53 8 27 34 -8 9 -15 29 -15 45 0 19 5 29 15 29 8 0 15 7 15 15 0
11 -11 15 -40 15 -36 0 -40 3 -40 25 0 14 -4 25 -10 25 -5 0 -10 -16 -10 -36z"/>
<path d="M21975 9770 c3 -5 8 -10 11 -10 2 0 4 5 4 10 0 6 -5 10 -11 10 -5 0
-7 -4 -4 -10z"/>
<path d="M22020 9711 c0 -6 5 -13 10 -16 6 -3 10 1 10 9 0 9 -4 16 -10 16 -5
0 -10 -4 -10 -9z"/>
<path d="M22054 9689 c1 -18 7 -34 14 -37 17 -5 15 43 -2 57 -11 9 -13 6 -12
-20z"/>
<path d="M22070 9630 c0 -4 14 -13 30 -19 20 -7 30 -17 30 -30 0 -12 5 -21 11
-21 5 0 7 -5 4 -11 -8 -12 14 -69 26 -69 5 0 9 -7 9 -15 0 -8 5 -15 11 -15 6
0 9 6 6 14 -3 8 -1 16 5 18 7 3 3 13 -10 26 -13 13 -28 20 -34 16 -7 -5 -9 -2
-5 9 5 13 -9 87 -16 87 -1 0 -17 4 -35 9 -17 5 -32 6 -32 1z"/>
<path d="M22105 9580 c3 -5 8 -10 11 -10 2 0 4 5 4 10 0 6 -5 10 -11 10 -5 0
-7 -4 -4 -10z"/>
<path d="M22208 9434 c-5 -11 40 -56 45 -46 3 4 -6 18 -18 31 -12 12 -25 19
-27 15z"/>
<path d="M21660 7575 c-10 -12 -10 -15 4 -15 9 0 16 7 16 15 0 8 -2 15 -4 15
-2 0 -9 -7 -16 -15z"/>
<path d="M20908 5224 c25 -11 32 -20 31 -42 0 -27 -1 -27 -11 -4 -6 12 -15 22
-20 22 -15 0 -8 -21 15 -43 13 -12 27 -29 30 -37 3 -8 6 10 6 41 1 63 -10 79
-53 78 l-31 -1 33 -14z"/>
<path d="M27760 21570 c0 -5 5 -10 10 -10 6 0 10 5 10 10 0 6 -4 10 -10 10 -5
0 -10 -4 -10 -10z"/>
<path d="M27661 21565 c0 -5 18 -30 40 -55 23 -25 37 -36 31 -25 -6 11 -19 30
-31 41 -11 12 -17 25 -13 30 4 4 2 4 -5 1 -6 -4 -14 -1 -16 5 -3 7 -6 9 -6 3z"/>
<path d="M27711 21554 c0 -11 3 -14 6 -6 3 7 2 16 -1 19 -3 4 -6 -2 -5 -13z"/>
<path d="M27876 21465 c4 -9 15 -20 25 -26 16 -8 19 -6 19 16 0 20 -5 25 -25
25 -18 0 -23 -4 -19 -15z"/>
<path d="M27790 21466 c0 -2 7 -9 15 -16 13 -11 14 -10 9 4 -5 14 -24 23 -24
12z"/>
<path d="M27780 21420 c0 -5 5 -10 10 -10 6 0 10 5 10 10 0 6 -4 10 -10 10 -5
0 -10 -4 -10 -10z"/>
<path d="M27884 21308 c-4 -5 -2 -14 4 -20 11 -11 52 6 52 21 0 12 -49 11 -56
-1z m26 -8 c0 -5 -4 -10 -10 -10 -5 0 -10 5 -10 10 0 6 5 10 10 10 6 0 10 -4
10 -10z"/>
<path d="M32148 21629 c-21 -17 -38 -38 -38 -47 0 -13 3 -12 21 4 20 18 64 74
57 74 -2 -1 -20 -14 -40 -31z"/>
<path d="M32130 21483 c-63 -68 -101 -133 -71 -121 27 10 147 178 127 178 -2
0 -27 -26 -56 -57z"/>
<path d="M32205 21360 c-24 -24 -45 -38 -55 -35 -21 7 -120 -118 -120 -151 0
-13 4 -24 9 -24 5 0 40 39 77 86 80 99 81 101 113 137 37 41 20 32 -24 -13z"/>
<path d="M32159 21353 c-13 -16 -12 -17 4 -4 16 13 21 21 13 21 -2 0 -10 -8
-17 -17z"/>
<path d="M32316 21270 c-21 -28 -51 -61 -67 -74 -15 -13 -26 -26 -24 -28 3 -2
-13 -22 -35 -43 -44 -43 -62 -41 -36 2 9 15 -8 1 -39 -32 -68 -74 -90 -116
-78 -152 l9 -25 29 34 c17 19 39 46 50 59 11 13 63 76 116 139 92 110 125 157
117 166 -2 2 -21 -19 -42 -46z"/>
<path d="M32236 21243 c-6 -14 -5 -15 5 -6 7 7 10 15 7 18 -3 3 -9 -2 -12 -12z"/>
<path d="M32194 21188 l-29 -33 33 29 c30 28 37 36 29 36 -2 0 -16 -15 -33
-32z"/>
<path d="M32240 20997 c-69 -82 -130 -155 -135 -161 -42 -44 -58 -110 -36
-144 9 -14 52 29 96 96 13 20 34 49 47 63 23 27 60 71 137 164 40 49 51 75 31
75 -5 0 -10 -4 -10 -8 0 -5 -20 -30 -45 -56 -25 -27 -45 -51 -45 -53 0 -14
-86 -93 -99 -92 -12 1 -11 3 2 6 12 3 16 10 12 20 -6 18 33 66 46 57 5 -3 7 1
4 8 -3 7 9 29 26 48 59 66 102 121 98 124 -2 2 -60 -64 -129 -147z"/>
<path d="M32290 20769 c-193 -233 -183 -218 -177 -267 7 -65 22 -73 58 -32 17
19 38 49 47 66 17 32 59 84 169 208 37 42 63 80 63 94 0 21 -15 31 -22 13 -3
-9 -113 -135 -163 -186 -16 -17 -23 -22 -15 -11 9 12 26 37 38 56 23 34 22 34
-12 -5 -70 -78 -35 -18 44 77 59 71 85 96 98 92 14 -5 15 -4 2 5 -13 10 -13
12 0 21 13 9 13 10 0 9 -8 0 -67 -63 -130 -140z"/>
<path d="M32332 20489 c-96 -115 -152 -190 -152 -204 0 -30 28 -95 40 -95 12
0 27 18 107 122 32 42 93 117 136 168 78 92 84 103 67 130 -7 12 -14 9 -37
-20 -54 -66 -163 -189 -175 -196 -12 -8 51 73 125 160 23 27 48 57 55 68 14
19 10 48 -6 48 -5 0 -77 -82 -160 -181z m72 38 c-55 -63 -101 -113 -103 -111
-1 1 41 55 94 119 53 64 99 114 102 111 3 -3 -39 -56 -93 -119z"/>
<path d="M32498 20323 c-236 -277 -235 -276 -201 -348 27 -57 41 -51 125 56
29 37 57 70 161 191 66 78 78 106 57 138 -12 17 -21 8 -177 -173 -18 -21 -33
-34 -33 -30 0 4 11 21 25 37 14 16 25 32 25 36 0 4 15 22 33 41 93 99 109 120
96 135 -6 8 -15 14 -20 14 -4 0 -45 -44 -91 -97z m102 73 c0 -3 -6 -11 -13
-18 -7 -7 -22 -26 -34 -41 -37 -48 -94 -109 -98 -105 -2 2 10 20 28 40 18 20
49 57 70 82 35 42 47 53 47 42z"/>
<path d="M32676 20143 c-19 -21 -49 -57 -68 -80 -18 -23 -72 -88 -119 -145
-47 -57 -89 -109 -93 -116 -12 -20 41 -122 64 -122 9 0 35 21 56 48 21 26 41
49 44 52 19 17 209 249 219 267 9 18 8 29 -4 53 l-16 31 -48 -53 c-26 -29 -65
-71 -86 -93 -32 -34 -33 -35 -9 -5 16 20 44 55 62 78 19 22 42 51 53 63 18 21
18 23 3 41 -10 10 -18 18 -20 18 -2 0 -19 -17 -38 -37z m38 -16 c-3 -8 -12
-18 -20 -21 -11 -4 -10 0 3 18 20 26 27 28 17 3z m-66 -77 c-18 -22 -37 -40
-42 -40 -10 0 56 78 67 79 5 1 -7 -17 -25 -39z m-78 -90 c0 -5 -5 -10 -11 -10
-5 0 -7 5 -4 10 3 6 8 10 11 10 2 0 4 -4 4 -10z"/>
<path d="M32835 19933 c-9 -9 -27 -32 -40 -52 -12 -20 -30 -42 -39 -50 -9 -7
-16 -20 -16 -29 0 -8 -3 -12 -6 -9 -4 4 -23 -15 -43 -41 -19 -26 -64 -82 -98
-125 -35 -44 -63 -84 -63 -91 0 -8 55 -99 76 -125 5 -6 36 25 132 138 180 212
210 252 204 275 -6 25 -72 126 -83 126 -4 0 -15 -7 -24 -17z"/>
<path d="M35955 19637 c-4 -14 -2 -35 5 -46 10 -21 12 -21 34 -4 24 18 50 52
44 58 -2 2 -20 6 -40 10 -34 6 -38 5 -43 -18z"/>
<path d="M32558 12613 c7 -3 16 -2 19 1 4 3 -2 6 -13 5 -11 0 -14 -3 -6 -6z"/>
<path d="M32971 11754 c0 -11 3 -14 6 -6 3 7 2 16 -1 19 -3 4 -6 -2 -5 -13z"/>
<path d="M26091 13064 c0 -11 3 -14 6 -6 3 7 2 16 -1 19 -3 4 -6 -2 -5 -13z"/>
<path d="M10468 9848 l-183 -93 -14 -62 c-8 -35 -12 -65 -9 -68 9 -10 159 69
154 80 -8 23 33 55 142 110 119 61 149 88 40 37 -83 -39 -113 -48 -103 -31 6
9 3 10 -11 5 -37 -14 -1 9 94 61 158 85 88 61 -110 -39z"/>
<path d="M10423 9591 c-105 -52 -186 -98 -192 -109 -12 -23 -27 -132 -18 -132
4 0 35 14 69 31 45 22 67 40 78 63 12 24 38 43 122 86 94 48 144 80 127 80 -3
0 -43 -16 -88 -36 -46 -19 -85 -33 -89 -30 -3 3 1 6 9 7 9 0 8 3 -4 7 -13 6 6
19 75 56 105 55 103 54 97 61 -3 2 -87 -36 -186 -84z"/>
<path d="M10384 9310 c-200 -97 -204 -101 -204 -196 0 -52 6 -53 80 -21 42 19
55 30 64 56 10 29 27 42 131 97 66 34 121 68 123 73 5 16 2 15 -93 -29 -97
-45 -119 -50 -84 -20 21 17 21 19 4 14 -40 -13 0 14 83 56 45 23 82 46 82 51
0 11 24 22 -186 -81z"/>
<path d="M10363 9016 c-101 -50 -176 -92 -182 -104 -18 -33 -14 -131 5 -139
23 -9 134 47 134 67 0 26 36 53 148 111 71 38 102 59 102 72 0 16 -2 16 -37
-2 -21 -10 -67 -30 -103 -45 -62 -25 -64 -18 -4 21 11 7 1 6 -21 -3 -36 -13
-38 -13 -20 1 10 8 51 31 90 51 77 40 97 54 75 54 -8 0 -92 -38 -187 -84z"/>
<path d="M10365 8717 c-126 -64 -181 -98 -184 -111 -1 -10 0 -47 4 -82 5 -46
11 -64 21 -64 28 0 139 63 166 94 14 17 69 54 122 81 85 44 96 53 96 77 l0 27
-45 -19 c-25 -11 -66 -29 -91 -40 -65 -28 -78 -24 -22 7 53 29 59 44 8 18 -18
-9 -34 -14 -36 -12 -6 6 68 48 129 73 46 19 64 45 30 43 -10 -1 -99 -42 -198
-92z"/>
</g>
</svg>
